<?xml version="1.0" encoding="utf-8"?>
<svg version="1.1" xmlns:xlink="http://www.w3.org/1999/xlink" width="102px" height="40px" xmlns="http://www.w3.org/2000/svg">
  <g transform="matrix(1 0 0 1 -450 -238 )">
    <path d="M 451 243  A 4 4 0 0 1 455 239 L 547 239  A 4 4 0 0 1 551 243 L 551 273  A 4 4 0 0 1 547 277 L 455 277  A 4 4 0 0 1 451 273 L 451 243  Z " fill-rule="nonzero" fill="#c39b4d" stroke="none" fill-opacity="0.345098039215686" />
    <path d="M 450.5 243  A 4.5 4.5 0 0 1 455 238.5 L 547 238.5  A 4.5 4.5 0 0 1 551.5 243 L 551.5 273  A 4.5 4.5 0 0 1 547 277.5 L 455 277.5  A 4.5 4.5 0 0 1 450.5 273 L 450.5 243  Z " stroke-width="1" stroke="#c39b4d" fill="none" stroke-opacity="0.345098039215686" />
  </g>
</svg>