<?xml version="1.0" encoding="utf-8"?>
<svg version="1.1" xmlns:xlink="http://www.w3.org/1999/xlink" width="90px" height="40px" xmlns="http://www.w3.org/2000/svg">
  <g transform="matrix(1 0 0 1 -456 -80 )">
    <path d="M 457 85  A 4 4 0 0 1 461 81 L 541 81  A 4 4 0 0 1 545 85 L 545 115  A 4 4 0 0 1 541 119 L 461 119  A 4 4 0 0 1 457 115 L 457 85  Z " fill-rule="nonzero" fill="#c39b4d" stroke="none" fill-opacity="0.345098039215686" />
    <path d="M 456.5 85  A 4.5 4.5 0 0 1 461 80.5 L 541 80.5  A 4.5 4.5 0 0 1 545.5 85 L 545.5 115  A 4.5 4.5 0 0 1 541 119.5 L 461 119.5  A 4.5 4.5 0 0 1 456.5 115 L 456.5 85  Z " stroke-width="1" stroke="#c39b4d" fill="none" stroke-opacity="0.345098039215686" />
  </g>
</svg>