<?xml version="1.0" encoding="utf-8"?>
<svg version="1.1" xmlns:xlink="http://www.w3.org/1999/xlink" width="140px" height="41px" xmlns="http://www.w3.org/2000/svg">
  <g transform="matrix(1 0 0 1 -137 -179 )">
    <path d="M 138 184  A 4 4 0 0 1 142 180 L 272 180  A 4 4 0 0 1 276 184 L 276 215  A 4 4 0 0 1 272 219 L 142 219  A 4 4 0 0 1 138 215 L 138 184  Z " fill-rule="nonzero" fill="#c39b4d" stroke="none" fill-opacity="0.345098039215686" />
    <path d="M 137.5 184  A 4.5 4.5 0 0 1 142 179.5 L 272 179.5  A 4.5 4.5 0 0 1 276.5 184 L 276.5 215  A 4.5 4.5 0 0 1 272 219.5 L 142 219.5  A 4.5 4.5 0 0 1 137.5 215 L 137.5 184  Z " stroke-width="1" stroke="#c39b4d" fill="none" stroke-opacity="0.345098039215686" />
  </g>
</svg>