<?xml version="1.0" encoding="utf-8"?>
<svg version="1.1" xmlns:xlink="http://www.w3.org/1999/xlink" width="134px" height="41px" xmlns="http://www.w3.org/2000/svg">
  <g transform="matrix(1 0 0 1 -140 -129 )">
    <path d="M 141 134  A 4 4 0 0 1 145 130 L 269 130  A 4 4 0 0 1 273 134 L 273 165  A 4 4 0 0 1 269 169 L 145 169  A 4 4 0 0 1 141 165 L 141 134  Z " fill-rule="nonzero" fill="#c39b4d" stroke="none" fill-opacity="0.345098039215686" />
    <path d="M 140.5 134  A 4.5 4.5 0 0 1 145 129.5 L 269 129.5  A 4.5 4.5 0 0 1 273.5 134 L 273.5 165  A 4.5 4.5 0 0 1 269 169.5 L 145 169.5  A 4.5 4.5 0 0 1 140.5 165 L 140.5 134  Z " stroke-width="1" stroke="#c39b4d" fill="none" stroke-opacity="0.345098039215686" />
  </g>
</svg>