<?xml version="1.0" encoding="utf-8"?>
<svg version="1.1" xmlns:xlink="http://www.w3.org/1999/xlink" width="88px" height="41px" xmlns="http://www.w3.org/2000/svg">
  <g transform="matrix(1 0 0 1 -163 -240 )">
    <path d="M 164 245  A 4 4 0 0 1 168 241 L 246 241  A 4 4 0 0 1 250 245 L 250 276  A 4 4 0 0 1 246 280 L 168 280  A 4 4 0 0 1 164 276 L 164 245  Z " fill-rule="nonzero" fill="#c39b4d" stroke="none" fill-opacity="0.345098039215686" />
    <path d="M 163.5 245  A 4.5 4.5 0 0 1 168 240.5 L 246 240.5  A 4.5 4.5 0 0 1 250.5 245 L 250.5 276  A 4.5 4.5 0 0 1 246 280.5 L 168 280.5  A 4.5 4.5 0 0 1 163.5 276 L 163.5 245  Z " stroke-width="1" stroke="#c39b4d" fill="none" stroke-opacity="0.345098039215686" />
  </g>
</svg>