<?xml version="1.0" encoding="utf-8"?>
<svg version="1.1" xmlns:xlink="http://www.w3.org/1999/xlink" width="78px" height="41px" xmlns="http://www.w3.org/2000/svg">
  <g transform="matrix(1 0 0 1 -168 -77 )">
    <path d="M 169 82  A 4 4 0 0 1 173 78 L 241 78  A 4 4 0 0 1 245 82 L 245 113  A 4 4 0 0 1 241 117 L 173 117  A 4 4 0 0 1 169 113 L 169 82  Z " fill-rule="nonzero" fill="#c39b4d" stroke="none" fill-opacity="0.345098039215686" />
    <path d="M 168.5 82  A 4.5 4.5 0 0 1 173 77.5 L 241 77.5  A 4.5 4.5 0 0 1 245.5 82 L 245.5 113  A 4.5 4.5 0 0 1 241 117.5 L 173 117.5  A 4.5 4.5 0 0 1 168.5 113 L 168.5 82  Z " stroke-width="1" stroke="#c39b4d" fill="none" stroke-opacity="0.345098039215686" />
  </g>
</svg>