<?xml version="1.0" encoding="utf-8"?>
<svg version="1.1" xmlns:xlink="http://www.w3.org/1999/xlink" width="153px" height="125px" xmlns="http://www.w3.org/2000/svg">
  <defs>
    <mask fill="white" id="clip167">
      <path d="M 0 102.941176470588  L 0 22.0588235294118  C 0 9.70588235294118  6.732 0  15.3 0  L 15.7604854368932 0  L 137.7 0  C 146.268 0  153 9.70588235294118  153 22.0588235294118  L 153 102.941176470588  C 153 115.294117647059  146.268 125  137.7 125  L 15.3 125  C 6.732 125  0 115.294117647059  0 102.941176470588  Z " fill-rule="evenodd" />
    </mask>
  </defs>
  <g>
    <path d="M 0 102.941176470588  L 0 22.0588235294118  C 0 9.70588235294118  6.732 0  15.3 0  L 15.7604854368932 0  L 137.7 0  C 146.268 0  153 9.70588235294118  153 22.0588235294118  L 153 102.941176470588  C 153 115.294117647059  146.268 125  137.7 125  L 15.3 125  C 6.732 125  0 115.294117647059  0 102.941176470588  Z " fill-rule="nonzero" fill="#c39b4d" stroke="none" />
    <path d="M 0 102.941176470588  L 0 22.0588235294118  C 0 9.70588235294118  6.732 0  15.3 0  L 15.7604854368932 0  L 137.7 0  C 146.268 0  153 9.70588235294118  153 22.0588235294118  L 153 102.941176470588  C 153 115.294117647059  146.268 125  137.7 125  L 15.3 125  C 6.732 125  0 115.294117647059  0 102.941176470588  Z " stroke-width="2" stroke="#797979" fill="none" mask="url(#clip167)" />
  </g>
</svg>