<?xml version="1.0" encoding="utf-8"?>
<svg version="1.1" xmlns:xlink="http://www.w3.org/1999/xlink" width="305px" height="157px" xmlns="http://www.w3.org/2000/svg">
  <defs>
    <mask fill="white" id="clip159">
      <path d="M 0 129.294117647059  L 0 27.7058823529412  C 0 12.1905882352941  13.42 0  30.5 0  L 31.4179611650486 0  L 274.5 0  C 291.58 0  305 12.1905882352941  305 27.7058823529412  L 305 129.294117647059  C 305 144.809411764706  291.58 157  274.5 157  L 30.5 157  C 13.42 157  0 144.809411764706  0 129.294117647059  Z " fill-rule="evenodd" />
    </mask>
  </defs>
  <g>
    <path d="M 0 129.294117647059  L 0 27.7058823529412  C 0 12.1905882352941  13.42 0  30.5 0  L 31.4179611650486 0  L 274.5 0  C 291.58 0  305 12.1905882352941  305 27.7058823529412  L 305 129.294117647059  C 305 144.809411764706  291.58 157  274.5 157  L 30.5 157  C 13.42 157  0 144.809411764706  0 129.294117647059  Z " fill-rule="nonzero" fill="#c39b4d" stroke="none" />
    <path d="M 0 129.294117647059  L 0 27.7058823529412  C 0 12.1905882352941  13.42 0  30.5 0  L 31.4179611650486 0  L 274.5 0  C 291.58 0  305 12.1905882352941  305 27.7058823529412  L 305 129.294117647059  C 305 144.809411764706  291.58 157  274.5 157  L 30.5 157  C 13.42 157  0 144.809411764706  0 129.294117647059  Z " stroke-width="2" stroke="#797979" fill="none" mask="url(#clip159)" />
  </g>
</svg>