<?xml version="1.0" encoding="utf-8"?>
<svg version="1.1" xmlns:xlink="http://www.w3.org/1999/xlink" width="109px" height="47px" xmlns="http://www.w3.org/2000/svg">
  <g transform="matrix(1 0 0 1 -21 -12 )">
    <path d="M 47.288330078125 30.0940755208333  C 47.554443359375 31.0426432291667  47.6875 32.0677083333333  47.6875 33.1692708333333  C 47.6875 34.2912326388889  47.128662109375 35.2449001736111  46.010986328125 36.0302734375  C 44.893310546875 36.8156467013889  43.5538736979167 37.2083333333333  41.99267578125 37  L 19.31982421875 37  C 17.7586263020833 37.2083333333333  16.419189453125 36.8156467013889  15.301513671875 36.0302734375  C 14.183837890625 35.2449001736111  13.625 34.2912326388889  13.625 33.1692708333333  C 13.625 32.0677083333333  13.758056640625 31.0426432291667  14.024169921875 30.0940755208333  C 14.290283203125 29.1455078125  14.7249348958333 28.2275390625  15.328125 27.3401692708333  C 15.9313151041667 26.4527994791667  16.8361002604167 25.7541232638889  18.04248046875 25.244140625  C 19.2488606770833 24.7341579861111  20.6858723958333 24.4791666666667  22.353515625 24.4791666666667  C 24.6243489583333 25.7847222222222  27.3919270833333 26.4375  30.65625 26.4375  C 33.9205729166667 26.4375  36.6881510416667 25.7847222222222  38.958984375 24.4791666666667  C 40.6266276041667 24.4791666666667  42.0636393229167 24.7341579861111  43.27001953125 25.244140625  C 44.4763997395833 25.7541232638889  45.3811848958333 26.4527994791667  45.984375 27.3401692708333  C 46.5875651041667 28.2275390625  47.022216796875 29.1455078125  47.288330078125 30.0940755208333  Z M 37.89453125 15.421875  C 39.8815104166667 16.5642361111111  40.875 17.9513888888889  40.875 19.5833333333333  C 40.875 21.2152777777778  39.8815104166667 22.6024305555556  37.89453125 23.7447916666667  C 35.9075520833333 24.8871527777778  33.4947916666667 25.4583333333333  30.65625 25.4583333333333  C 27.8177083333333 25.4583333333333  25.4049479166667 24.8871527777778  23.41796875 23.7447916666667  C 21.4309895833333 22.6024305555556  20.4375 21.2152777777778  20.4375 19.5833333333333  C 20.4375 17.9513888888889  21.4309895833333 16.5642361111111  23.41796875 15.421875  C 25.4049479166667 14.2795138888889  27.8177083333333 13.7083333333333  30.65625 13.7083333333333  C 33.4947916666667 13.7083333333333  35.9075520833333 14.2795138888889  37.89453125 15.421875  Z M 94.89599609375 31.6087239583333  C 95.21533203125 31.7923177083333  95.375 32.0269097222222  95.375 32.3125  L 95.375 34.2708333333333  C 95.375 34.5564236111111  95.21533203125 34.791015625  94.89599609375 34.974609375  C 94.57666015625 35.158203125  94.1686197916667 35.25  93.671875 35  L 56.203125 35  C 55.7063802083333 35.25  55.29833984375 35.158203125  54.97900390625 34.974609375  C 54.65966796875 34.791015625  54.5 34.5564236111111  54.5 34.2708333333333  L 54.5 32.3125  C 54.5 32.0269097222222  54.65966796875 31.7923177083333  54.97900390625 31.6087239583333  C 55.29833984375 31.4251302083333  55.7063802083333 31.3333333333333  56.203125 31  L 93.671875 31  C 94.1686197916667 31.3333333333333  94.57666015625 31.4251302083333  94.89599609375 31.6087239583333  Z M 74.45849609375 23.775390625  C 74.77783203125 23.958984375  74.9375 24.1935763888889  74.9375 24.4791666666667  L 74.9375 26.4375  C 74.9375 26.7230902777778  74.77783203125 26.9576822916667  74.45849609375 27.1412760416667  C 74.13916015625 27.3248697916667  73.7311197916667 27.4166666666667  73.234375 27  L 56.203125 27  C 55.7063802083333 27.4166666666667  55.29833984375 27.3248697916667  54.97900390625 27.1412760416667  C 54.65966796875 26.9576822916667  54.5 26.7230902777778  54.5 26.4375  L 54.5 24.4791666666667  C 54.5 24.1935763888889  54.65966796875 23.958984375  54.97900390625 23.775390625  C 55.29833984375 23.591796875  55.7063802083333 23.5  56.203125 23  L 73.234375 23  C 73.7311197916667 23.5  74.13916015625 23.591796875  74.45849609375 23.775390625  Z M 94.89599609375 23.775390625  C 95.21533203125 23.958984375  95.375 24.1935763888889  95.375 24.4791666666667  L 95.375 26.4375  C 95.375 26.7230902777778  95.21533203125 26.9576822916667  94.89599609375 27.1412760416667  C 94.57666015625 27.3248697916667  94.1686197916667 27.4166666666667  93.671875 27  L 83.453125 27  C 82.9563802083333 27.4166666666667  82.54833984375 27.3248697916667  82.22900390625 27.1412760416667  C 81.90966796875 26.9576822916667  81.75 26.7230902777778  81.75 26.4375  L 81.75 24.4791666666667  C 81.75 24.1935763888889  81.90966796875 23.958984375  82.22900390625 23.775390625  C 82.54833984375 23.591796875  82.9563802083333 23.5  83.453125 23  L 93.671875 23  C 94.1686197916667 23.5  94.57666015625 23.591796875  94.89599609375 23.775390625  Z M 94.89599609375 15.9420572916667  C 95.21533203125 16.1256510416667  95.375 16.3602430555556  95.375 16.6458333333333  L 95.375 18.6041666666667  C 95.375 18.8897569444444  95.21533203125 19.1243489583333  94.89599609375 19.3079427083333  C 94.57666015625 19.4915364583333  94.1686197916667 19.5833333333333  93.671875 20  L 56.203125 20  C 55.7063802083333 19.5833333333333  55.29833984375 19.4915364583333  54.97900390625 19.3079427083333  C 54.65966796875 19.1243489583333  54.5 18.8897569444444  54.5 18.6041666666667  L 54.5 16.6458333333333  C 54.5 16.3602430555556  54.65966796875 16.1256510416667  54.97900390625 15.9420572916667  C 55.29833984375 15.7584635416667  55.7063802083333 15.6666666666667  56.203125 16  L 93.671875 16  C 94.1686197916667 15.6666666666667  94.57666015625 15.7584635416667  94.89599609375 15.9420572916667  Z M 101.681884765625 42.7926432291667  C 102.018961588542 42.5988498263889  102.1875 42.3693576388889  102 42.1041666666667  L 102 8  L 7 8  L 7 42.1041666666667  C 6.8125 42.3693576388889  6.98103841145833 42.5988498263889  7.318115234375 42.7926432291667  C 7.65519205729167 42.9864366319444  8.05436197916667 43.0833333333333  8.515625 43  L 100.484375 43  C 100.945638020833 43.0833333333333  101.344807942708 42.9864366319444  101.681884765625 42.7926432291667  Z M 106.49853515625 1.43815104166667  C 108.166178385417 2.39691840277778  109 3.54947916666667  109 4.89583333333333  L 109 42.1041666666667  C 109 43.4505208333333  108.166178385417 44.6030815972222  106.49853515625 45.5618489583333  C 104.830891927083 46.5206163194444  102.826171875 47  100.484375 47  L 8.515625 47  C 6.173828125 47  4.16910807291667 46.5206163194444  2.50146484375 45.5618489583333  C 0.833821614583333 44.6030815972222  0 43.4505208333333  0 42.1041666666667  L 0 4.89583333333333  C 0 3.54947916666667  0.833821614583333 2.39691840277778  2.50146484375 1.43815104166667  C 4.16910807291667 0.479383680555551  6.173828125 0  8.515625 0  L 100.484375 0  C 102.826171875 0  104.830891927083 0.479383680555551  106.49853515625 1.43815104166667  Z " fill-rule="nonzero" fill="#000000" stroke="none" transform="matrix(1 0 0 1 21 12 )" />
  </g>
</svg>