<?xml version="1.0" encoding="utf-8"?>
<svg version="1.1" xmlns:xlink="http://www.w3.org/1999/xlink" width="112px" height="43px" xmlns="http://www.w3.org/2000/svg">
  <g transform="matrix(1 0 0 1 -20 -13 )">
    <path d="M 29.8666666666667 15.3571428571429  C 29.8666666666667 17.5807291666667  31.4416666666667 19.6283482142857  34.5916666666667 21.5  C 28.2916666666667 21.5799851190476  23.1388888888889 22.6037946428571  19.1333333333333 24.5714285714286  L 11.3166666666667 24.5714285714286  C 8.12777777777778 24.5714285714286  5.44444444444445 24.2474888392857  3.26666666666667 23.599609375  C 1.08888888888889 22.9517299107143  0 22.00390625  0 20.7561383928571  C 0 15.1091889880952  2.41111111111111 12.2857142857143  7.23333333333333 12.2857142857143  C 7.46666666666667 12.2857142857143  8.3125 12.4536830357143  9.77083333333333 12.7896205357143  C 11.2291666666667 13.1255580357143  13.125 13.4654947916667  15.4583333333333 13.8094308035714  C 17.7916666666667 14.1533668154762  20.1055555555556 14.3253348214286  22.4 14.3253348214286  C 25.0055555555556 14.3253348214286  27.5916666666667 14.141369047619  30.1583333333333 13.7734375  C 29.9638888888889 14.3653273809524  29.8666666666667 14.8932291666667  29.8666666666667 15.3571428571429  Z M 96.8625 34.3016183035714  C 96.9986111111111 35.1094680059524  97.0666666666667 35.9373139880952  97.0666666666667 36.78515625  C 97.0666666666667 38.7047991071429  95.6472222222222 40.2205171130952  92.8083333333333 41.3323102678571  C 89.9694444444445 42.444103422619  86.1972222222222 43  81.4916666666667 43  L 30.5083333333333 43  C 25.8027777777778 43  22.0305555555556 42.444103422619  19.1916666666667 41.3323102678571  C 16.3527777777778 40.2205171130952  14.9333333333333 38.7047991071429  14.9333333333333 36.78515625  C 14.9333333333333 35.9373139880952  15.0013888888889 35.1094680059524  15.1375 34.3016183035714  C 15.2736111111111 33.4937686011905  15.5458333333333 32.6219308035714  15.9541666666667 31.6861049107143  C 16.3625 30.7502790178571  16.8777777777778 29.8824404761905  17.5 29.0825892857143  C 18.1222222222222 28.2827380952381  18.9583333333333 27.5028831845238  20.0083333333333 26.7430245535714  C 21.0583333333333 25.983165922619  22.2638888888889 25.3352864583333  23.625 24.7993861607143  C 24.9861111111111 24.2634858630952  26.6486111111111 23.8355654761905  28.6125 23.515625  C 30.5763888888889 23.1956845238095  32.7444444444444 23.0357142857143  35.1166666666667 23.0357142857143  C 35.5055555555556 23.0357142857143  36.3416666666667 23.2076822916667  37.625 23.5516183035714  C 38.9083333333333 23.8955543154762  40.3277777777778 24.2794828869048  41.8833333333333 24.7034040178571  C 43.4388888888889 25.1273251488095  45.5194444444444 25.5112537202381  48.125 25.8551897321429  C 50.7305555555556 26.1991257440476  53.3555555555556 26.37109375  56 26.37109375  C 58.6444444444444 26.37109375  61.2694444444444 26.1991257440476  63.875 25.8551897321429  C 66.4805555555556 25.5112537202381  68.5611111111111 25.1273251488095  70.1166666666667 24.7034040178571  C 71.6722222222222 24.2794828869048  73.0916666666667 23.8955543154762  74.375 23.5516183035714  C 75.6583333333333 23.2076822916667  76.4944444444445 23.0357142857143  76.8833333333333 23.0357142857143  C 79.2555555555556 23.0357142857143  81.4236111111111 23.1956845238095  83.3875 23.515625  C 85.3513888888889 23.8355654761905  87.0138888888889 24.2634858630952  88.375 24.7993861607143  C 89.7361111111111 25.3352864583333  90.9416666666667 25.983165922619  91.9916666666667 26.7430245535714  C 93.0416666666667 27.5028831845238  93.8777777777778 28.2827380952381  94.5 29.0825892857143  C 95.1222222222222 29.8824404761905  95.6375 30.7502790178571  96.0458333333333 31.6861049107143  C 96.4541666666667 32.6219308035714  96.7263888888889 33.4937686011905  96.8625 34.3016183035714  Z M 32.9583333333333 1.79966517857143  C 35.875 2.99944196428571  37.3333333333333 4.44717261904762  37.3333333333333 6.14285714285715  C 37.3333333333333 7.83854166666667  35.875 9.28627232142857  32.9583333333333 10.4860491071429  C 30.0416666666667 11.6858258928571  26.5222222222222 12.2857142857143  22.4 12.2857142857143  C 18.2777777777778 12.2857142857143  14.7583333333333 11.6858258928571  11.8416666666667 10.4860491071429  C 8.925 9.28627232142857  7.46666666666667 7.83854166666667  7.46666666666667 6.14285714285715  C 7.46666666666667 4.44717261904762  8.925 2.99944196428571  11.8416666666667 1.79966517857143  C 14.7583333333333 0.599888392857145  18.2777777777778 0  22.4 0  C 26.5222222222222 0  30.0416666666667 0.599888392857145  32.9583333333333 1.79966517857143  Z M 71.8375 8.84235491071428  C 76.2125 10.6420200892857  78.4 12.8136160714286  78.4 15.3571428571429  C 78.4 17.9006696428571  76.2125 20.072265625  71.8375 21.8719308035714  C 67.4625 23.6715959821429  62.1833333333333 24.5714285714286  56 24.5714285714286  C 49.8166666666667 24.5714285714286  44.5375 23.6715959821429  40.1625 21.8719308035714  C 35.7875 20.072265625  33.6 17.9006696428571  33.6 15.3571428571429  C 33.6 12.8136160714286  35.7875 10.6420200892857  40.1625 8.84235491071428  C 44.5375 7.04268973214286  49.8166666666667 6.14285714285715  56 6.14285714285715  C 62.1833333333333 6.14285714285715  67.4625 7.04268973214286  71.8375 8.84235491071428  Z M 104.766666666667 12.2857142857143  C 109.588888888889 12.2857142857143  112 15.1091889880952  112 20.7561383928571  C 112 22.00390625  110.911111111111 22.9517299107143  108.733333333333 23.599609375  C 106.555555555556 24.2474888392857  103.872222222222 24.5714285714286  100.683333333333 24.5714285714286  L 92.8666666666667 24.5714285714286  C 88.8611111111111 22.6037946428571  83.7083333333333 21.5799851190476  77.4083333333333 21.5  C 80.5583333333333 19.6283482142857  82.1333333333333 17.5807291666667  82.1333333333333 15.3571428571429  C 82.1333333333333 14.8932291666667  82.0361111111111 14.3653273809524  81.8416666666667 13.7734375  C 84.4083333333333 14.141369047619  86.9944444444445 14.3253348214286  89.6 14.3253348214286  C 91.8944444444444 14.3253348214286  94.2083333333333 14.1533668154762  96.5416666666667 13.8094308035714  C 98.875 13.4654947916667  100.770833333333 13.1255580357143  102.229166666667 12.7896205357143  C 103.6875 12.4536830357143  104.533333333333 12.2857142857143  104.766666666667 12.2857142857143  Z M 100.158333333333 1.79966517857143  C 103.075 2.99944196428571  104.533333333333 4.44717261904762  104.533333333333 6.14285714285715  C 104.533333333333 7.83854166666667  103.075 9.28627232142857  100.158333333333 10.4860491071429  C 97.2416666666667 11.6858258928571  93.7222222222222 12.2857142857143  89.6 12.2857142857143  C 85.4777777777778 12.2857142857143  81.9583333333333 11.6858258928571  79.0416666666667 10.4860491071429  C 76.125 9.28627232142857  74.6666666666667 7.83854166666667  74.6666666666667 6.14285714285715  C 74.6666666666667 4.44717261904762  76.125 2.99944196428571  79.0416666666667 1.79966517857143  C 81.9583333333333 0.599888392857145  85.4777777777778 0  89.6 0  C 93.7222222222222 0  97.2416666666667 0.599888392857145  100.158333333333 1.79966517857143  Z " fill-rule="nonzero" fill="#000000" stroke="none" transform="matrix(1 0 0 1 20 13 )" />
  </g>
</svg>