<?xml version="1.0" encoding="utf-8"?>
<svg version="1.1" xmlns:xlink="http://www.w3.org/1999/xlink" width="180px" height="41px" xmlns="http://www.w3.org/2000/svg">
  <g transform="matrix(1 0 0 1 -415 -192 )">
    <path d="M 416 197  A 4 4 0 0 1 420 193 L 590 193  A 4 4 0 0 1 594 197 L 594 228  A 4 4 0 0 1 590 232 L 420 232  A 4 4 0 0 1 416 228 L 416 197  Z " fill-rule="nonzero" fill="#c39b4d" stroke="none" fill-opacity="0.345098039215686" />
    <path d="M 415.5 197  A 4.5 4.5 0 0 1 420 192.5 L 590 192.5  A 4.5 4.5 0 0 1 594.5 197 L 594.5 228  A 4.5 4.5 0 0 1 590 232.5 L 420 232.5  A 4.5 4.5 0 0 1 415.5 228 L 415.5 197  Z " stroke-width="1" stroke="#c39b4d" fill="none" stroke-opacity="0.345098039215686" />
  </g>
</svg>