<?xml version="1.0" encoding="utf-8"?>
<svg version="1.1" xmlns:xlink="http://www.w3.org/1999/xlink" width="166px" height="41px" xmlns="http://www.w3.org/2000/svg">
  <g transform="matrix(1 0 0 1 -429 -140 )">
    <path d="M 430 145  A 4 4 0 0 1 434 141 L 590 141  A 4 4 0 0 1 594 145 L 594 176  A 4 4 0 0 1 590 180 L 434 180  A 4 4 0 0 1 430 176 L 430 145  Z " fill-rule="nonzero" fill="#c39b4d" stroke="none" fill-opacity="0.345098039215686" />
    <path d="M 429.5 145  A 4.5 4.5 0 0 1 434 140.5 L 590 140.5  A 4.5 4.5 0 0 1 594.5 145 L 594.5 176  A 4.5 4.5 0 0 1 590 180.5 L 434 180.5  A 4.5 4.5 0 0 1 429.5 176 L 429.5 145  Z " stroke-width="1" stroke="#c39b4d" fill="none" stroke-opacity="0.345098039215686" />
  </g>
</svg>