<?xml version="1.0" encoding="utf-8"?>
<svg version="1.1" xmlns:xlink="http://www.w3.org/1999/xlink" width="152px" height="41px" xmlns="http://www.w3.org/2000/svg">
  <g transform="matrix(1 0 0 1 -429 -303 )">
    <path d="M 430 308  A 4 4 0 0 1 434 304 L 576 304  A 4 4 0 0 1 580 308 L 580 339  A 4 4 0 0 1 576 343 L 434 343  A 4 4 0 0 1 430 339 L 430 308  Z " fill-rule="nonzero" fill="#c39b4d" stroke="none" fill-opacity="0.345098039215686" />
    <path d="M 429.5 308  A 4.5 4.5 0 0 1 434 303.5 L 576 303.5  A 4.5 4.5 0 0 1 580.5 308 L 580.5 339  A 4.5 4.5 0 0 1 576 343.5 L 434 343.5  A 4.5 4.5 0 0 1 429.5 339 L 429.5 308  Z " stroke-width="1" stroke="#c39b4d" fill="none" stroke-opacity="0.345098039215686" />
  </g>
</svg>