<?xml version="1.0" encoding="utf-8"?>
<svg version="1.1" xmlns:xlink="http://www.w3.org/1999/xlink" width="58px" height="50px" xmlns="http://www.w3.org/2000/svg">
  <g transform="matrix(1 0 0 1 -75 -4078 )">
    <path d="M 3.20963541666667 0  L 54.7903645833333 0  C 55.6714409722222 0  56.4266493055556 0.27126736111111  57.0559895833333 0.813802083333331  C 57.6853298611111 1.35633680555555  58 2.00737847222222  58 2.76692708333333  L 58 47.2330729166667  C 58 47.9926215277778  57.6853298611111 48.6436631944444  57.0559895833333 49.1861979166667  C 56.4266493055556 49.7287326388889  55.6714409722222 50  54.7903645833333 50  L 40 50  L 40 30.6315104166667  L 47.5403645833333 30.6315104166667  L 48.6731770833333 23.0794270833333  L 40.0260416666667 23.0794270833333  L 40.0260416666667 18.26171875  C 40.0260416666667 17.0464409722222  40.3218315972222 16.1349826388889  40.9134114583333 15.52734375  C 41.5049913194445 14.9197048611111  42.6566840277778 14.6158854166667  44.3684895833333 14.6158854166667  L 48.9752604166667 14.5833333333333  L 48.9752604166667 7.84505208333333  C 47.3893229166667 7.64973958333333  45.1488715277778 7.55208333333333  42.25390625 7.55208333333333  C 38.8302951388889 7.55208333333333  36.0926649305556 8.42013888888888  34.041015625 10.15625  C 31.9893663194444 11.8923611111111  30.9635416666667 14.3446180555556  30.9635416666667 17.5130208333333  L 30.9635416666667 23.0794270833333  L 23.4114583333333 23.0794270833333  L 23.4114583333333 30.6315104166667  L 31 30.6315104166667  L 31 50  L 3.20963541666667 50  C 2.32855902777778 50  1.57335069444444 49.7287326388889  0.944010416666667 49.1861979166667  C 0.314670138888889 48.6436631944444  0 47.9926215277778  0 47.2330729166667  L 0 2.76692708333333  C 0 2.00737847222222  0.314670138888889 1.35633680555555  0.944010416666667 0.813802083333331  C 1.57335069444444 0.27126736111111  2.32855902777778 0  3.20963541666667 0  Z " fill-rule="nonzero" fill="#0000bf" stroke="none" transform="matrix(1 0 0 1 75 4078 )" />
  </g>
</svg>