<?xml version="1.0" encoding="utf-8"?>
<svg version="1.1" xmlns:xlink="http://www.w3.org/1999/xlink" width="87px" height="50px" xmlns="http://www.w3.org/2000/svg">
  <g transform="matrix(1 0 0 1 -258 -3889 )">
    <path d="M 4.814453125 0  L 82.185546875 0  C 83.5071614583333 0  84.6399739583333 0.27126736111111  85.583984375 0.813802083333331  C 86.5279947916667 1.35633680555555  87 2.00737847222222  87 2.76692708333333  L 87 47.2330729166667  C 87 47.9926215277778  86.5279947916667 48.6436631944444  85.583984375 49.1861979166667  C 84.6399739583333 49.7287326388889  83.5071614583333 50  82.185546875 50  L 60 50  L 60 30  L 71.310546875 30  L 73.009765625 23  L 60.0390625 23  L 60.0390625 18.26171875  C 60.0390625 17.0464409722222  60.4827473958333 16.1349826388889  61.3701171875 15.52734375  C 62.2574869791667 14.9197048611111  63.9850260416667 14.6158854166667  66.552734375 14.6158854166667  L 73.462890625 14.5833333333333  L 73.462890625 7.84505208333333  C 71.083984375 7.64973958333333  67.7233072916667 7.55208333333333  63.380859375 7.55208333333333  C 58.2454427083333 7.55208333333333  54.1389973958333 8.42013888888888  51.0615234375 10.15625  C 47.9840494791667 11.8923611111111  46.4453125 14.3446180555556  46.4453125 17.5130208333333  L 46.4453125 23  L 35.1171875 23  L 35.1171875 30  L 46 30  L 46 50  L 4.814453125 50  C 3.49283854166667 50  2.36002604166667 49.7287326388889  1.416015625 49.1861979166667  C 0.472005208333333 48.6436631944444  0 47.9926215277778  0 47.2330729166667  L 0 2.76692708333333  C 0 2.00737847222222  0.472005208333333 1.35633680555555  1.416015625 0.813802083333331  C 2.36002604166667 0.27126736111111  3.49283854166667 0  4.814453125 0  Z " fill-rule="nonzero" fill="#0000bf" stroke="none" transform="matrix(1 0 0 1 258 3889 )" />
  </g>
</svg>