<?xml version="1.0" encoding="utf-8"?>
<svg version="1.1" xmlns:xlink="http://www.w3.org/1999/xlink" width="50px" height="50px" xmlns="http://www.w3.org/2000/svg">
  <g transform="matrix(1 0 0 1 -458 -4316 )">
    <path d="M 2.76692708333333 0  L 47.2330729166667 0  C 47.9926215277778 0  48.6436631944445 0.27126736111111  49.1861979166667 0.813802083333331  C 49.7287326388889 1.35633680555555  50 2.00737847222222  50 2.76692708333333  L 50 47.2330729166667  C 50 47.9926215277778  49.7287326388889 48.6436631944444  49.1861979166667 49.1861979166667  C 48.6436631944445 49.7287326388889  47.9926215277778 50  47.2330729166667 50  L 34 50  L 34 30.6315104166667  L 40.9830729166667 30.6315104166667  L 41.9596354166667 23.0794270833333  L 34.5052083333333 23.0794270833333  L 34.5052083333333 18.26171875  C 34.5052083333333 17.0464409722222  34.7601996527778 16.1349826388889  35.2701822916667 15.52734375  C 35.7801649305556 14.9197048611111  36.7730034722222 14.6158854166667  38.2486979166667 14.6158854166667  L 42.2200520833333 14.5833333333333  L 42.2200520833333 7.84505208333333  C 40.8528645833333 7.64973958333333  38.9214409722222 7.55208333333333  36.42578125 7.55208333333333  C 33.4743923611111 7.55208333333333  31.1143663194444 8.42013888888888  29.345703125 10.15625  C 27.5770399305556 11.8923611111111  26.6927083333333 14.3446180555556  26.6927083333333 17.5130208333333  L 26.6927083333333 23.0794270833333  L 20.1822916666667 23.0794270833333  L 20.1822916666667 30.6315104166667  L 26 30.6315104166667  L 26 50  L 2.76692708333333 50  C 2.00737847222222 50  1.35633680555556 49.7287326388889  0.813802083333333 49.1861979166667  C 0.271267361111111 48.6436631944444  0 47.9926215277778  0 47.2330729166667  L 0 2.76692708333333  C 0 2.00737847222222  0.271267361111111 1.35633680555555  0.813802083333333 0.813802083333331  C 1.35633680555556 0.27126736111111  2.00737847222222 0  2.76692708333333 0  Z " fill-rule="nonzero" fill="#0000bf" stroke="none" transform="matrix(1 0 0 1 458 4316 )" />
  </g>
</svg>