<?xml version="1.0" encoding="utf-8"?>
<svg version="1.1" xmlns:xlink="http://www.w3.org/1999/xlink" width="79px" height="48px" xmlns="http://www.w3.org/2000/svg">
  <g transform="matrix(1 0 0 1 -483 -3889 )">
    <path d="M 48.8092447916667 29.65625  C 51.380859375 28.09375  52.6666666666667 26.2083333333333  52.6666666666667 24  C 52.6666666666667 21.7916666666667  51.380859375 19.90625  48.8092447916667 18.34375  C 46.2376302083333 16.78125  43.1345486111111 16  39.5 16  C 35.8654513888889 16  32.7623697916667 16.78125  30.1907552083333 18.34375  C 27.619140625 19.90625  26.3333333333333 21.7916666666667  26.3333333333333 24  C 26.3333333333333 26.2083333333333  27.619140625 28.09375  30.1907552083333 29.65625  C 32.7623697916667 31.21875  35.8654513888889 32  39.5 32  C 43.1345486111111 32  46.2376302083333 31.21875  48.8092447916667 29.65625  Z M 53.849609375 15.28125  C 57.7927517361111 17.6770833333333  59.7643229166667 20.5833333333333  59.7643229166667 24  C 59.7643229166667 27.4166666666667  57.7927517361111 30.3229166666667  53.849609375 32.71875  C 49.9064670138889 35.1145833333333  45.1232638888889 36.3125  39.5 36.3125  C 33.8767361111111 36.3125  29.0935329861111 35.1145833333333  25.150390625 32.71875  C 21.2072482638889 30.3229166666667  19.2356770833333 27.4166666666667  19.2356770833333 24  C 19.2356770833333 20.5833333333333  21.2072482638889 17.6770833333333  25.150390625 15.28125  C 29.0935329861111 12.8854166666667  33.8767361111111 11.6875  39.5 11.6875  C 45.1232638888889 11.6875  49.9064670138889 12.8854166666667  53.849609375 15.28125  Z M 63.9303385416667 9.15625  C 64.8561197916667 9.71875  65.3190104166667 10.3958333333333  65.3190104166667 11.1875  C 65.3190104166667 11.9791666666667  64.8561197916667 12.65625  63.9303385416667 13.21875  C 63.0045572916667 13.78125  61.8901909722222 14.0625  60.5872395833333 14.0625  C 59.2842881944444 14.0625  58.169921875 13.78125  57.244140625 13.21875  C 56.318359375 12.65625  55.85546875 11.9791666666667  55.85546875 11.1875  C 55.85546875 10.3958333333333  56.318359375 9.71875  57.244140625 9.15625  C 58.169921875 8.59375  59.2842881944444 8.3125  60.5872395833333 8.3125  C 61.8901909722222 8.3125  63.0045572916667 8.59375  63.9303385416667 9.15625  Z M 43.4345703125 4.296875  C 41.0515407986111 4.30729166666666  39.7400173611111 4.3125  39.5 4.3125  C 39.2599826388889 4.3125  37.9484592013889 4.30729166666666  35.5654296875 4.296875  C 33.1824001736111 4.28645833333333  31.3736979166667 4.28645833333333  30.1393229166667 4.296875  C 28.9049479166667 4.30729166666666  27.2505425347222 4.33854166666667  25.1761067708333 4.390625  C 23.1016710069445 4.44270833333333  21.3358289930556 4.546875  19.8785807291667 4.703125  C 18.4213324652778 4.859375  17.1955295138889 5.05208333333333  16.201171875 5.28125  C 14.4867621527778 5.69791666666667  12.9780815972222 6.30208333333333  11.6751302083333 7.09375  C 10.3721788194444 7.88541666666666  9.37782118055556 8.80208333333333  8.69205729166667 9.84375  C 8.31488715277778 10.4479166666667  7.99772135416667 11.1927083333333  7.74055989583333 12.078125  C 7.4833984375 12.9635416666667  7.31195746527778 14.0364583333333  7.22623697916667 15.296875  C 7.14051649305556 16.5572916666667  7.08908420138889 17.5625  7.07194010416667 18.3125  C 7.05479600694445 19.0625  7.05479600694445 20.1614583333333  7.07194010416667 21.609375  C 7.08908420138889 23.0572916666667  7.09765625 23.8541666666667  7.09765625 24  C 7.09765625 24.1458333333333  7.08908420138889 24.9427083333333  7.07194010416667 26.390625  C 7.05479600694445 27.8385416666667  7.05479600694445 28.9375  7.07194010416667 29.6875  C 7.08908420138889 30.4375  7.14051649305556 31.4427083333333  7.22623697916667 32.703125  C 7.31195746527778 33.9635416666667  7.4833984375 35.0364583333333  7.74055989583333 35.921875  C 7.99772135416667 36.8072916666667  8.31488715277778 37.5520833333333  8.69205729166667 38.15625  C 9.37782118055556 39.1979166666667  10.3721788194444 40.1145833333333  11.6751302083333 40.90625  C 12.9780815972222 41.6979166666667  14.4867621527778 42.3020833333333  16.201171875 42.71875  C 17.1955295138889 42.9479166666667  18.4213324652778 43.140625  19.8785807291667 43.296875  C 21.3358289930556 43.453125  23.1016710069445 43.5572916666667  25.1761067708333 43.609375  C 27.2505425347222 43.6614583333333  28.9049479166667 43.6927083333333  30.1393229166667 43.703125  C 31.3736979166667 43.7135416666667  33.1824001736111 43.7135416666667  35.5654296875 43.703125  C 37.9484592013889 43.6927083333333  39.2599826388889 43.6875  39.5 43.6875  C 39.7400173611111 43.6875  41.0515407986111 43.6927083333333  43.4345703125 43.703125  C 45.8175998263889 43.7135416666667  47.6263020833333 43.7135416666667  48.8606770833333 43.703125  C 50.0950520833333 43.6927083333333  51.7494574652778 43.6614583333333  53.8238932291667 43.609375  C 55.8983289930556 43.5572916666667  57.6641710069444 43.453125  59.1214192708333 43.296875  C 60.5786675347222 43.140625  61.8044704861111 42.9479166666667  62.798828125 42.71875  C 64.5132378472222 42.3020833333333  66.0219184027778 41.6979166666667  67.3248697916667 40.90625  C 68.6278211805556 40.1145833333333  69.6221788194444 39.1979166666667  70.3079427083333 38.15625  C 70.6851128472222 37.5520833333333  71.0022786458333 36.8072916666667  71.2594401041667 35.921875  C 71.5166015625 35.0364583333333  71.6880425347222 33.9635416666667  71.7737630208333 32.703125  C 71.8594835069444 31.4427083333333  71.9109157986111 30.4375  71.9280598958333 29.6875  C 71.9452039930556 28.9375  71.9452039930556 27.8385416666667  71.9280598958333 26.390625  C 71.9109157986111 24.9427083333333  71.90234375 24.1458333333333  71.90234375 24  C 71.90234375 23.8541666666667  71.9109157986111 23.0572916666667  71.9280598958333 21.609375  C 71.9452039930556 20.1614583333333  71.9452039930556 19.0625  71.9280598958333 18.3125  C 71.9109157986111 17.5625  71.8594835069444 16.5572916666667  71.7737630208333 15.296875  C 71.6880425347222 14.0364583333333  71.5166015625 12.9635416666667  71.2594401041667 12.078125  C 71.0022786458333 11.1927083333333  70.6851128472222 10.4479166666667  70.3079427083333 9.84375  C 69.6221788194444 8.80208333333333  68.6278211805556 7.88541666666666  67.3248697916667 7.09375  C 66.0219184027778 6.30208333333333  64.5132378472222 5.69791666666667  62.798828125 5.28125  C 61.8044704861111 5.05208333333333  60.5786675347222 4.859375  59.1214192708333 4.703125  C 57.6641710069444 4.546875  55.8983289930556 4.44270833333333  53.8238932291667 4.390625  C 51.7494574652778 4.33854166666667  50.0950520833333 4.30729166666666  48.8606770833333 4.296875  C 47.6263020833333 4.28645833333333  45.8175998263889 4.28645833333333  43.4345703125 4.296875  Z M 78.7428385416667 14.09375  C 78.9142795138889 15.9270833333333  79 19.2291666666667  79 24  C 79 28.7708333333333  78.9142795138889 32.0729166666667  78.7428385416667 33.90625  C 78.3999565972222 38.2395833333333  76.2740885416667 41.59375  72.365234375 43.96875  C 68.4563802083333 46.34375  62.9359809027778 47.6354166666667  55.8040364583333 47.84375  C 52.7866753472222 47.9479166666667  47.3519965277778 48  39.5 48  C 31.6480034722222 48  26.2133246527778 47.9479166666667  23.1959635416667 47.84375  C 16.0640190972222 47.6354166666667  10.5436197916667 46.34375  6.634765625 43.96875  C 2.72591145833333 41.59375  0.600043402777778 38.2395833333333  0.257161458333333 33.90625  C 0.0857204861111111 32.0729166666667  0 28.7708333333333  0 24  C 0 19.2291666666667  0.0857204861111111 15.9270833333333  0.257161458333333 14.09375  C 0.600043402777778 9.76041666666666  2.72591145833333 6.40625  6.634765625 4.03125  C 10.5436197916667 1.65625  16.0640190972222 0.36458333333333  23.1959635416667 0.156250000000002  C 26.2133246527778 0.0520833333333268  31.6480034722222 0  39.5 0  C 47.3519965277778 0  52.7866753472222 0.0520833333333268  55.8040364583333 0.156250000000002  C 62.9359809027778 0.36458333333333  68.4563802083333 1.65625  72.365234375 4.03125  C 76.2740885416667 6.40625  78.3999565972222 9.76041666666666  78.7428385416667 14.09375  Z " fill-rule="nonzero" fill="#000000" stroke="none" transform="matrix(1 0 0 1 483 3889 )" />
  </g>
</svg>