<?xml version="1.0" encoding="utf-8"?>
<svg version="1.1" xmlns:xlink="http://www.w3.org/1999/xlink" width="50px" height="48px" xmlns="http://www.w3.org/2000/svg">
  <defs>
    <radialGradient cx="25" cy="24" r="42.4742268041237" gradientTransform="matrix(-1 0 0 -0.959999999999996 50 47.0399999999999 )" gradientUnits="userSpaceOnUse" id="RadialGradient151">
      <stop id="Stop152" stop-color="#ffffff" offset="0" />
      <stop id="Stop153" stop-color="#0000ff" offset="1" />
    </radialGradient>
  </defs>
  <g transform="matrix(1 0 0 1 -582 -4316 )">
    <path d="M 30.8919270833333 29.65625  C 32.51953125 28.09375  33.3333333333333 26.2083333333333  33.3333333333333 24  C 33.3333333333333 21.7916666666667  32.51953125 19.90625  30.8919270833333 18.34375  C 29.2643229166667 16.78125  27.3003472222222 16  25 16  C 22.6996527777778 16  20.7356770833333 16.78125  19.1080729166667 18.34375  C 17.48046875 19.90625  16.6666666666667 21.7916666666667  16.6666666666667 24  C 16.6666666666667 26.2083333333333  17.48046875 28.09375  19.1080729166667 29.65625  C 20.7356770833333 31.21875  22.6996527777778 32  25 32  C 27.3003472222222 32  29.2643229166667 31.21875  30.8919270833333 29.65625  Z M 34.08203125 15.28125  C 36.5776909722222 17.6770833333333  37.8255208333333 20.5833333333333  37.8255208333333 24  C 37.8255208333333 27.4166666666667  36.5776909722222 30.3229166666667  34.08203125 32.71875  C 31.5863715277778 35.1145833333333  28.5590277777778 36.3125  25 36.3125  C 21.4409722222222 36.3125  18.4136284722222 35.1145833333333  15.91796875 32.71875  C 13.4223090277778 30.3229166666667  12.1744791666667 27.4166666666667  12.1744791666667 24  C 12.1744791666667 20.5833333333333  13.4223090277778 17.6770833333333  15.91796875 15.28125  C 18.4136284722222 12.8854166666667  21.4409722222222 11.6875  25 11.6875  C 28.5590277777778 11.6875  31.5863715277778 12.8854166666667  34.08203125 15.28125  Z M 40.4622395833333 9.15625  C 41.0481770833333 9.71875  41.3411458333333 10.3958333333333  41.3411458333333 11.1875  C 41.3411458333333 11.9791666666667  41.0481770833333 12.65625  40.4622395833333 13.21875  C 39.8763020833333 13.78125  39.1710069444445 14.0625  38.3463541666667 14.0625  C 37.5217013888889 14.0625  36.81640625 13.78125  36.23046875 13.21875  C 35.64453125 12.65625  35.3515625 11.9791666666667  35.3515625 11.1875  C 35.3515625 10.3958333333333  35.64453125 9.71875  36.23046875 9.15625  C 36.81640625 8.59375  37.5217013888889 8.3125  38.3463541666667 8.3125  C 39.1710069444445 8.3125  39.8763020833333 8.59375  40.4622395833333 9.15625  Z M 27.490234375 4.296875  C 25.9819878472222 4.30729166666666  25.1519097222222 4.3125  25 4.3125  C 24.8480902777778 4.3125  24.0180121527778 4.30729166666666  22.509765625 4.296875  C 21.0015190972222 4.28645833333333  19.8567708333333 4.28645833333333  19.0755208333333 4.296875  C 18.2942708333333 4.30729166666666  17.2471788194444 4.33854166666667  15.9342447916667 4.390625  C 14.6213107638889 4.44270833333333  13.5036892361111 4.546875  12.5813802083333 4.703125  C 11.6590711805556 4.859375  10.8832465277778 5.05208333333333  10.25390625 5.28125  C 9.16883680555556 5.69791666666667  8.21397569444444 6.30208333333333  7.38932291666667 7.09375  C 6.56467013888889 7.88541666666666  5.93532986111111 8.80208333333333  5.50130208333333 9.84375  C 5.26258680555556 10.4479166666667  5.06184895833333 11.1927083333333  4.89908854166667 12.078125  C 4.736328125 12.9635416666667  4.62782118055556 14.0364583333333  4.57356770833333 15.296875  C 4.51931423611111 16.5572916666667  4.48676215277778 17.5625  4.47591145833333 18.3125  C 4.46506076388889 19.0625  4.46506076388889 20.1614583333333  4.47591145833333 21.609375  C 4.48676215277778 23.0572916666667  4.4921875 23.8541666666667  4.4921875 24  C 4.4921875 24.1458333333333  4.48676215277778 24.9427083333333  4.47591145833333 26.390625  C 4.46506076388889 27.8385416666667  4.46506076388889 28.9375  4.47591145833333 29.6875  C 4.48676215277778 30.4375  4.51931423611111 31.4427083333333  4.57356770833333 32.703125  C 4.62782118055556 33.9635416666667  4.736328125 35.0364583333333  4.89908854166667 35.921875  C 5.06184895833333 36.8072916666667  5.26258680555556 37.5520833333333  5.50130208333333 38.15625  C 5.93532986111111 39.1979166666667  6.56467013888889 40.1145833333333  7.38932291666667 40.90625  C 8.21397569444444 41.6979166666667  9.16883680555556 42.3020833333333  10.25390625 42.71875  C 10.8832465277778 42.9479166666667  11.6590711805556 43.140625  12.5813802083333 43.296875  C 13.5036892361111 43.453125  14.6213107638889 43.5572916666667  15.9342447916667 43.609375  C 17.2471788194444 43.6614583333333  18.2942708333333 43.6927083333333  19.0755208333333 43.703125  C 19.8567708333333 43.7135416666667  21.0015190972222 43.7135416666667  22.509765625 43.703125  C 24.0180121527778 43.6927083333333  24.8480902777778 43.6875  25 43.6875  C 25.1519097222222 43.6875  25.9819878472222 43.6927083333333  27.490234375 43.703125  C 28.9984809027778 43.7135416666667  30.1432291666667 43.7135416666667  30.9244791666667 43.703125  C 31.7057291666667 43.6927083333333  32.7528211805556 43.6614583333333  34.0657552083333 43.609375  C 35.3786892361111 43.5572916666667  36.4963107638889 43.453125  37.4186197916667 43.296875  C 38.3409288194445 43.140625  39.1167534722222 42.9479166666667  39.74609375 42.71875  C 40.8311631944445 42.3020833333333  41.7860243055556 41.6979166666667  42.6106770833333 40.90625  C 43.4353298611111 40.1145833333333  44.0646701388889 39.1979166666667  44.4986979166667 38.15625  C 44.7374131944445 37.5520833333333  44.9381510416667 36.8072916666667  45.1009114583333 35.921875  C 45.263671875 35.0364583333333  45.3721788194445 33.9635416666667  45.4264322916667 32.703125  C 45.4806857638889 31.4427083333333  45.5132378472222 30.4375  45.5240885416667 29.6875  C 45.5349392361111 28.9375  45.5349392361111 27.8385416666667  45.5240885416667 26.390625  C 45.5132378472222 24.9427083333333  45.5078125 24.1458333333333  45.5078125 24  C 45.5078125 23.8541666666667  45.5132378472222 23.0572916666667  45.5240885416667 21.609375  C 45.5349392361111 20.1614583333333  45.5349392361111 19.0625  45.5240885416667 18.3125  C 45.5132378472222 17.5625  45.4806857638889 16.5572916666667  45.4264322916667 15.296875  C 45.3721788194445 14.0364583333333  45.263671875 12.9635416666667  45.1009114583333 12.078125  C 44.9381510416667 11.1927083333333  44.7374131944445 10.4479166666667  44.4986979166667 9.84375  C 44.0646701388889 8.80208333333333  43.4353298611111 7.88541666666666  42.6106770833333 7.09375  C 41.7860243055556 6.30208333333333  40.8311631944445 5.69791666666667  39.74609375 5.28125  C 39.1167534722222 5.05208333333333  38.3409288194445 4.859375  37.4186197916667 4.703125  C 36.4963107638889 4.546875  35.3786892361111 4.44270833333333  34.0657552083333 4.390625  C 32.7528211805556 4.33854166666667  31.7057291666667 4.30729166666666  30.9244791666667 4.296875  C 30.1432291666667 4.28645833333333  28.9984809027778 4.28645833333333  27.490234375 4.296875  Z M 49.8372395833333 14.09375  C 49.9457465277778 15.9270833333333  50 19.2291666666667  50 24  C 50 28.7708333333333  49.9457465277778 32.0729166666667  49.8372395833333 33.90625  C 49.6202256944445 38.2395833333333  48.2747395833333 41.59375  45.80078125 43.96875  C 43.3268229166667 46.34375  39.8328993055556 47.6354166666667  35.3190104166667 47.84375  C 33.4092881944445 47.9479166666667  29.9696180555556 48  25 48  C 20.0303819444444 48  16.5907118055556 47.9479166666667  14.6809895833333 47.84375  C 10.1671006944444 47.6354166666667  6.67317708333333 46.34375  4.19921875 43.96875  C 1.72526041666667 41.59375  0.379774305555556 38.2395833333333  0.162760416666667 33.90625  C 0.0542534722222222 32.0729166666667  0 28.7708333333333  0 24  C 0 19.2291666666667  0.0542534722222222 15.9270833333333  0.162760416666667 14.09375  C 0.379774305555556 9.76041666666666  1.72526041666667 6.40625  4.19921875 4.03125  C 6.67317708333333 1.65625  10.1671006944444 0.36458333333333  14.6809895833333 0.156250000000002  C 16.5907118055556 0.0520833333333268  20.0303819444444 0  25 0  C 29.9696180555556 0  33.4092881944445 0.0520833333333268  35.3190104166667 0.156250000000002  C 39.8328993055556 0.36458333333333  43.3268229166667 1.65625  45.80078125 4.03125  C 48.2747395833333 6.40625  49.6202256944445 9.76041666666666  49.8372395833333 14.09375  Z " fill-rule="nonzero" fill="url(#RadialGradient151)" stroke="none" transform="matrix(1 0 0 1 582 4316 )" />
  </g>
</svg>