<?xml version="1.0" encoding="utf-8"?>
<svg version="1.1" xmlns:xlink="http://www.w3.org/1999/xlink" width="48px" height="48px" xmlns="http://www.w3.org/2000/svg">
  <g transform="matrix(1 0 0 1 -198 -4077 )">
    <path d="M 29.65625 29.65625  C 31.21875 28.09375  32 26.2083333333333  32 24  C 32 21.7916666666667  31.21875 19.90625  29.65625 18.34375  C 28.09375 16.78125  26.2083333333333 16  24 16  C 21.7916666666667 16  19.90625 16.78125  18.34375 18.34375  C 16.78125 19.90625  16 21.7916666666667  16 24  C 16 26.2083333333333  16.78125 28.09375  18.34375 29.65625  C 19.90625 31.21875  21.7916666666667 32  24 32  C 26.2083333333333 32  28.09375 31.21875  29.65625 29.65625  Z M 32.71875 15.28125  C 35.1145833333333 17.6770833333333  36.3125 20.5833333333333  36.3125 24  C 36.3125 27.4166666666667  35.1145833333333 30.3229166666667  32.71875 32.71875  C 30.3229166666667 35.1145833333333  27.4166666666667 36.3125  24 36.3125  C 20.5833333333333 36.3125  17.6770833333333 35.1145833333333  15.28125 32.71875  C 12.8854166666667 30.3229166666667  11.6875 27.4166666666667  11.6875 24  C 11.6875 20.5833333333333  12.8854166666667 17.6770833333333  15.28125 15.28125  C 17.6770833333333 12.8854166666667  20.5833333333333 11.6875  24 11.6875  C 27.4166666666667 11.6875  30.3229166666667 12.8854166666667  32.71875 15.28125  Z M 38.84375 9.15625  C 39.40625 9.71875  39.6875 10.3958333333333  39.6875 11.1875  C 39.6875 11.9791666666667  39.40625 12.65625  38.84375 13.21875  C 38.28125 13.78125  37.6041666666667 14.0625  36.8125 14.0625  C 36.0208333333333 14.0625  35.34375 13.78125  34.78125 13.21875  C 34.21875 12.65625  33.9375 11.9791666666667  33.9375 11.1875  C 33.9375 10.3958333333333  34.21875 9.71875  34.78125 9.15625  C 35.34375 8.59375  36.0208333333333 8.3125  36.8125 8.3125  C 37.6041666666667 8.3125  38.28125 8.59375  38.84375 9.15625  Z M 26.390625 4.296875  C 24.9427083333333 4.30729166666666  24.1458333333333 4.3125  24 4.3125  C 23.8541666666667 4.3125  23.0572916666667 4.30729166666666  21.609375 4.296875  C 20.1614583333333 4.28645833333333  19.0625 4.28645833333333  18.3125 4.296875  C 17.5625 4.30729166666666  16.5572916666667 4.33854166666667  15.296875 4.390625  C 14.0364583333333 4.44270833333333  12.9635416666667 4.546875  12.078125 4.703125  C 11.1927083333333 4.859375  10.4479166666667 5.05208333333333  9.84375 5.28125  C 8.80208333333333 5.69791666666667  7.88541666666667 6.30208333333333  7.09375 7.09375  C 6.30208333333333 7.88541666666666  5.69791666666667 8.80208333333333  5.28125 9.84375  C 5.05208333333333 10.4479166666667  4.859375 11.1927083333333  4.703125 12.078125  C 4.546875 12.9635416666667  4.44270833333333 14.0364583333333  4.390625 15.296875  C 4.33854166666667 16.5572916666667  4.30729166666667 17.5625  4.296875 18.3125  C 4.28645833333333 19.0625  4.28645833333333 20.1614583333333  4.296875 21.609375  C 4.30729166666667 23.0572916666667  4.3125 23.8541666666667  4.3125 24  C 4.3125 24.1458333333333  4.30729166666667 24.9427083333333  4.296875 26.390625  C 4.28645833333333 27.8385416666667  4.28645833333333 28.9375  4.296875 29.6875  C 4.30729166666667 30.4375  4.33854166666667 31.4427083333333  4.390625 32.703125  C 4.44270833333333 33.9635416666667  4.546875 35.0364583333333  4.703125 35.921875  C 4.859375 36.8072916666667  5.05208333333333 37.5520833333333  5.28125 38.15625  C 5.69791666666667 39.1979166666667  6.30208333333333 40.1145833333333  7.09375 40.90625  C 7.88541666666667 41.6979166666667  8.80208333333333 42.3020833333333  9.84375 42.71875  C 10.4479166666667 42.9479166666667  11.1927083333333 43.140625  12.078125 43.296875  C 12.9635416666667 43.453125  14.0364583333333 43.5572916666667  15.296875 43.609375  C 16.5572916666667 43.6614583333333  17.5625 43.6927083333333  18.3125 43.703125  C 19.0625 43.7135416666667  20.1614583333333 43.7135416666667  21.609375 43.703125  C 23.0572916666667 43.6927083333333  23.8541666666667 43.6875  24 43.6875  C 24.1458333333333 43.6875  24.9427083333333 43.6927083333333  26.390625 43.703125  C 27.8385416666667 43.7135416666667  28.9375 43.7135416666667  29.6875 43.703125  C 30.4375 43.6927083333333  31.4427083333333 43.6614583333333  32.703125 43.609375  C 33.9635416666667 43.5572916666667  35.0364583333333 43.453125  35.921875 43.296875  C 36.8072916666667 43.140625  37.5520833333333 42.9479166666667  38.15625 42.71875  C 39.1979166666667 42.3020833333333  40.1145833333333 41.6979166666667  40.90625 40.90625  C 41.6979166666667 40.1145833333333  42.3020833333333 39.1979166666667  42.71875 38.15625  C 42.9479166666667 37.5520833333333  43.140625 36.8072916666667  43.296875 35.921875  C 43.453125 35.0364583333333  43.5572916666667 33.9635416666667  43.609375 32.703125  C 43.6614583333333 31.4427083333333  43.6927083333333 30.4375  43.703125 29.6875  C 43.7135416666667 28.9375  43.7135416666667 27.8385416666667  43.703125 26.390625  C 43.6927083333333 24.9427083333333  43.6875 24.1458333333333  43.6875 24  C 43.6875 23.8541666666667  43.6927083333333 23.0572916666667  43.703125 21.609375  C 43.7135416666667 20.1614583333333  43.7135416666667 19.0625  43.703125 18.3125  C 43.6927083333333 17.5625  43.6614583333333 16.5572916666667  43.609375 15.296875  C 43.5572916666667 14.0364583333333  43.453125 12.9635416666667  43.296875 12.078125  C 43.140625 11.1927083333333  42.9479166666667 10.4479166666667  42.71875 9.84375  C 42.3020833333333 8.80208333333333  41.6979166666667 7.88541666666666  40.90625 7.09375  C 40.1145833333333 6.30208333333333  39.1979166666667 5.69791666666667  38.15625 5.28125  C 37.5520833333333 5.05208333333333  36.8072916666667 4.859375  35.921875 4.703125  C 35.0364583333333 4.546875  33.9635416666667 4.44270833333333  32.703125 4.390625  C 31.4427083333333 4.33854166666667  30.4375 4.30729166666666  29.6875 4.296875  C 28.9375 4.28645833333333  27.8385416666667 4.28645833333333  26.390625 4.296875  Z M 47.84375 14.09375  C 47.9479166666667 15.9270833333333  48 19.2291666666667  48 24  C 48 28.7708333333333  47.9479166666667 32.0729166666667  47.84375 33.90625  C 47.6354166666667 38.2395833333333  46.34375 41.59375  43.96875 43.96875  C 41.59375 46.34375  38.2395833333333 47.6354166666667  33.90625 47.84375  C 32.0729166666667 47.9479166666667  28.7708333333333 48  24 48  C 19.2291666666667 48  15.9270833333333 47.9479166666667  14.09375 47.84375  C 9.76041666666667 47.6354166666667  6.40625 46.34375  4.03125 43.96875  C 1.65625 41.59375  0.364583333333333 38.2395833333333  0.15625 33.90625  C 0.0520833333333333 32.0729166666667  0 28.7708333333333  0 24  C 0 19.2291666666667  0.0520833333333333 15.9270833333333  0.15625 14.09375  C 0.364583333333333 9.76041666666666  1.65625 6.40625  4.03125 4.03125  C 6.40625 1.65625  9.76041666666667 0.36458333333333  14.09375 0.156250000000002  C 15.9270833333333 0.0520833333333268  19.2291666666667 0  24 0  C 28.7708333333333 0  32.0729166666667 0.0520833333333268  33.90625 0.156250000000002  C 38.2395833333333 0.36458333333333  41.59375 1.65625  43.96875 4.03125  C 46.34375 6.40625  47.6354166666667 9.76041666666666  47.84375 14.09375  Z " fill-rule="nonzero" fill="#000000" stroke="none" transform="matrix(1 0 0 1 198 4077 )" />
  </g>
</svg>