<?xml version="1.0" encoding="utf-8"?>
<svg version="1.1" xmlns:xlink="http://www.w3.org/1999/xlink" width="50px" height="50px" xmlns="http://www.w3.org/2000/svg">
  <g transform="matrix(1 0 0 1 -688 -4316 )">
    <path d="M 13.5308159722222 26.3128698224852  C 13.9286747685185 26.9908777120316  14.1276041666667 27.7983234714004  14.1276041666667 28.7352071005917  C 14.1276041666667 29.6967455621302  13.9286747685185 30.5165187376726  13.5308159722222 31.1945266272189  C 13.1329571759259 31.8725345167653  12.6591435185185 32.2115384615385  12.109375 32.2115384615385  C 11.5451388888889 32.2115384615385  11.0640914351852 31.8725345167653  10.6662326388889 31.1945266272189  C 10.2683738425926 30.5165187376726  10.0694444444444 29.6967455621302  10.0694444444444 28.7352071005917  C 10.0694444444444 27.7983234714004  10.2683738425926 26.9908777120316  10.6662326388889 26.3128698224852  C 11.0640914351852 25.6348619329389  11.5451388888889 25.2958579881657  12.109375 25.2958579881657  C 12.6591435185185 25.2958579881657  13.1329571759259 25.6348619329389  13.5308159722222 26.3128698224852  Z M 38.57421875 26.2573964497041  C 38.9720775462963 26.9230769230769  39.1710069444444 27.7366863905325  39.1710069444444 28.698224852071  C 39.1710069444444 29.6597633136095  38.9720775462963 30.4795364891519  38.57421875 31.1575443786982  C 38.1763599537037 31.8355522682446  37.6953125 32.1745562130178  37.1310763888889 32.1745562130178  C 36.5668402777778 32.1745562130178  36.0857928240741 31.8355522682446  35.6879340277778 31.1575443786982  C 35.2900752314815 30.4795364891519  35.0911458333333 29.6597633136095  35.0911458333333 28.698224852071  C 35.0911458333333 27.7366863905325  35.2900752314815 26.9230769230769  35.6879340277778 26.2573964497041  C 36.0857928240741 25.5917159763314  36.5668402777778 25.258875739645  37.1310763888889 25.258875739645  C 37.6953125 25.258875739645  38.1763599537037 25.5917159763314  38.57421875 26.2573964497041  Z M 15.3754340277778 33.7832840236686  C 16.1928530092593 32.3902859960552  16.6015625 30.7075936883629  16.6015625 28.7352071005917  C 16.6015625 26.7874753451677  16.1928530092593 25.1109467455621  15.3754340277778 23.7056213017752  C 14.5580150462963 22.3002958579882  13.5706018518519 21.5976331360947  12.4131944444444 21.5976331360947  C 11.255787037037 21.5976331360947  10.2683738425926 22.2941321499014  9.45095486111111 23.6871301775148  C 8.63353587962963 25.0801282051282  8.22482638888889 26.7628205128205  8.22482638888889 28.7352071005917  C 8.22482638888889 30.7075936883629  8.63353587962963 32.3902859960552  9.45095486111111 33.7832840236686  C 10.2683738425926 35.1762820512821  11.255787037037 35.8727810650888  12.4131944444444 35.8727810650888  C 13.5706018518519 35.8727810650888  14.5580150462963 35.1762820512821  15.3754340277778 33.7832840236686  Z M 40.3971354166667 33.7463017751479  C 41.2145543981482 32.3533037475345  41.6232638888889 30.6706114398422  41.6232638888889 28.698224852071  C 41.6232638888889 26.7258382642998  41.2145543981482 25.0431459566075  40.3971354166667 23.6501479289941  C 39.5797164351852 22.2571499013807  38.5923032407407 21.560650887574  37.4348958333333 21.560650887574  C 36.2919560185185 21.560650887574  35.3081597222222 22.2571499013807  34.4835069444444 23.6501479289941  C 33.6588541666667 25.0431459566075  33.2465277777778 26.7258382642998  33.2465277777778 28.698224852071  C 33.2465277777778 30.6706114398422  33.6552372685185 32.3533037475345  34.47265625 33.7463017751479  C 35.2900752314815 35.1392998027613  36.2774884259259 35.8357988165681  37.4348958333333 35.8357988165681  C 38.5923032407407 35.8357988165681  39.5797164351852 35.1392998027613  40.3971354166667 33.7463017751479  Z M 16.6775173611111 21.4681952662722  C 17.8566261574074 23.4775641025641  18.4461805555556 25.8999013806706  18.4461805555556 28.7352071005917  C 18.4461805555556 31.59516765286  17.8566261574074 34.02983234714  16.6775173611111 36.0392011834319  C 15.4984085648148 38.0485700197239  14.0769675925926 39.0532544378698  12.4131944444444 39.0532544378698  C 10.7349537037037 39.0532544378698  9.30627893518519 38.0424063116371  8.12717013888889 36.0207100591716  C 6.94806134259259 33.9990138067061  6.35850694444444 31.5705128205128  6.35850694444444 28.7352071005917  C 6.35850694444444 25.8999013806706  6.95167824074074 23.4775641025641  8.13802083333333 21.4681952662722  C 9.32436342592593 19.4588264299803  10.7494212962963 18.4541420118343  12.4131944444444 18.4541420118343  C 14.0769675925926 18.4541420118343  15.4984085648148 19.4588264299803  16.6775173611111 21.4681952662722  Z M 41.7209201388889 21.4312130177515  C 42.9000289351852 23.4405818540434  43.4895833333333 25.8629191321499  43.4895833333333 28.698224852071  C 43.4895833333333 31.5335305719921  42.9000289351852 33.9558678500986  41.7209201388889 35.9652366863905  C 40.5418113425926 37.9746055226824  39.1131365740741 38.9792899408284  37.4348958333333 38.9792899408284  C 35.7711226851852 38.9792899408284  34.349681712963 37.9746055226824  33.1705729166667 35.9652366863905  C 31.9914641203704 33.9558678500986  31.4019097222222 31.5335305719921  31.4019097222222 28.698224852071  C 31.4019097222222 25.8629191321499  31.9914641203704 23.4405818540434  33.1705729166667 21.4312130177515  C 34.349681712963 19.4218441814596  35.7711226851852 18.4171597633136  37.4348958333333 18.4171597633136  C 39.1131365740741 18.4171597633136  40.5418113425926 19.4218441814596  41.7209201388889 21.4312130177515  Z M 19.62890625 40.883875739645  C 21.5892650462963 37.5431459566075  22.5694444444444 33.5182445759369  22.5694444444444 28.8091715976331  C 22.5694444444444 24.1000986193294  21.5892650462963 20.0751972386588  19.62890625 16.7344674556213  C 17.6685474537037 13.3937376725838  15.306712962963 11.7233727810651  12.5434027777778 11.7233727810651  C 10.7349537037037 11.7233727810651  9.06394675925926 12.4876725838264  7.53038194444444 14.0162721893491  C 5.99681712962963 15.5448717948718  4.78153935185185 17.6220414201183  3.88454861111111 20.2477810650888  C 2.98755787037037 22.8735207100592  2.5390625 25.7273175542406  2.5390625 28.8091715976331  C 2.5390625 31.8910256410256  2.98755787037037 34.7448224852071  3.88454861111111 37.3705621301775  C 4.78153935185185 39.9963017751479  5.99681712962963 42.0734714003945  7.53038194444444 43.6020710059172  C 9.06394675925926 45.1306706114398  10.7349537037037 45.8949704142012  12.5434027777778 45.8949704142012  C 15.306712962963 45.8949704142012  17.6685474537037 44.2246055226824  19.62890625 40.883875739645  Z M 32.3567708333333 9.46745562130177  C 33.8469328703704 8.30867850098619  35.4166666666667 7.69230769230769  37.0659722222222 7.61834319526627  C 33.3912037037037 4.88165680473373  29.369212962963 3.51331360946746  25 3.51331360946746  C 20.384837962963 3.51331360946746  16.2398726851852 4.86932938856015  12.5651041666667 7.58136094674556  C 14.2578125 7.58136094674556  15.8709490740741 8.14225838264299  17.4045138888889 9.26405325443787  C 18.9380787037037 10.3858481262327  20.2582465277778 11.8959566074951  21.3650173611111 13.7943786982249  C 22.4717881944444 15.6928007889546  23.3543113425926 17.9487179487179  24.0125868055556 20.5621301775148  C 24.6708622685185 23.1755424063116  25 25.9245562130178  25 28.8091715976331  C 25 25.973865877712  25.3146701388889 23.2679980276134  25.9440104166667 20.6915680473373  C 26.5733506944444 18.1151380670611  27.4269386574074 15.8900394477318  28.5047743055556 14.0162721893491  C 29.5826099537037 12.1425049309665  30.8666087962963 10.6262327416174  32.3567708333333 9.46745562130177  Z M 44.53125 40.883875739645  C 46.484375 37.5431459566075  47.4609375 33.5182445759369  47.4609375 28.8091715976331  C 47.4609375 24.1000986193294  46.484375 20.0751972386588  44.53125 16.7344674556213  C 42.578125 13.3937376725838  40.2199074074074 11.7233727810651  37.4565972222222 11.7233727810651  C 34.693287037037 11.7233727810651  32.3314525462963 13.3937376725838  30.37109375 16.7344674556213  C 28.4107349537037 20.0751972386588  27.4305555555556 24.1000986193294  27.4305555555556 28.8091715976331  C 27.4305555555556 33.5182445759369  28.4107349537037 37.5431459566075  30.37109375 40.883875739645  C 32.3314525462963 44.2246055226824  34.693287037037 45.8949704142012  37.4565972222222 45.8949704142012  C 40.2199074074074 45.8949704142012  42.578125 44.2246055226824  44.53125 40.883875739645  Z M 34.1362847222222 2.07100591715976  C 36.986400462963 3.4516765285996  39.5037615740741 5.38708086785009  41.6883680555556 7.87721893491125  L 50 7.87721893491125  C 49.3634259259259 9.13461538461539  48.8208912037037 10.5461045364891  48.3723958333333 12.1116863905325  C 47.923900462963 13.6772682445759  47.6345486111111 15.0887573964497  47.5043402777778 16.3461538461538  C 49.095775462963 20.069033530572  49.8914930555556 24.2233727810651  49.8914930555556 28.8091715976331  C 49.8914930555556 32.655325443787  49.3344907407407 36.2056213017751  48.2204861111111 39.4600591715976  C 47.1064814814815 42.7144970414201  45.5946180555556 45.2847633136095  43.6848958333333 47.1708579881657  C 41.7751736111111 49.0569526627219  39.6990740740741 50  37.4565972222222 50  C 35.5324074074074 50  33.7311921296296 49.3096646942801  32.0529513888889 47.9289940828402  C 30.3747106481482 46.5483234714004  28.9568865740741 44.637573964497  27.7994791666667 42.1967455621302  C 27.1195023148148 43.57741617357  26.1863425925926 45.7840236686391  25 48.8165680473373  C 24.8408564814815 48.2741617357002  24.4538483796296 47.2571499013807  23.8389756944444 45.7655325443787  C 23.2241030092593 44.2739151873767  22.6851851851852 43.0719921104537  22.2222222222222 42.1597633136095  C 21.0648148148148 44.6005917159763  19.6433738425926 46.5175049309665  17.9578993055556 47.9105029585799  C 16.2724247685185 49.3035009861933  14.4675925925926 50  12.5434027777778 50  C 10.3009259259259 50  8.22482638888889 49.0569526627219  6.31510416666667 47.1708579881657  C 4.40538194444444 45.2847633136095  2.89351851851852 42.7144970414201  1.77951388888889 39.4600591715976  C 0.665509259259259 36.2056213017751  0.108506944444444 32.655325443787  0.108506944444444 28.8091715976331  C 0.108506944444444 24.2233727810651  0.904224537037037 20.069033530572  2.49565972222222 16.3461538461538  C 2.36545138888889 15.0887573964497  2.07609953703704 13.6772682445759  1.62760416666667 12.1116863905325  C 1.1791087962963 10.5461045364891  0.636574074074074 9.13461538461539  0 7.87721893491125  L 7.92100694444444 7.87721893491125  C 10.0766782407407 5.41173570019723  12.6446759259259 3.48249506903353  15.625 2.08949704142012  C 18.6053240740741 0.696499013806701  21.7303240740741 0  25 0  C 28.2407407407407 0  31.2861689814815 0.690335305719914  34.1362847222222 2.07100591715976  Z " fill-rule="nonzero" fill="#000000" stroke="none" transform="matrix(1 0 0 1 688 4316 )" />
  </g>
</svg>