<?xml version="1.0" encoding="utf-8"?>
<svg version="1.1" xmlns:xlink="http://www.w3.org/1999/xlink" width="88px" height="50px" xmlns="http://www.w3.org/2000/svg">
  <g transform="matrix(1 0 0 1 -701 -3889 )">
    <path d="M 23.8142361111111 26.3128698224852  C 24.5144675925926 26.9908777120316  24.8645833333333 27.7983234714004  24.8645833333333 28.7352071005917  C 24.8645833333333 29.6967455621302  24.5144675925926 30.5165187376726  23.8142361111111 31.1945266272189  C 23.1140046296296 31.8725345167653  22.2800925925926 32.2115384615385  21.3125 32.2115384615385  C 20.3194444444444 32.2115384615385  19.4728009259259 31.8725345167653  18.7725694444444 31.1945266272189  C 18.072337962963 30.5165187376726  17.7222222222222 29.6967455621302  17.7222222222222 28.7352071005917  C 17.7222222222222 27.7983234714004  18.072337962963 26.9908777120316  18.7725694444444 26.3128698224852  C 19.4728009259259 25.6348619329389  20.3194444444444 25.2958579881657  21.3125 25.2958579881657  C 22.2800925925926 25.2958579881657  23.1140046296296 25.6348619329389  23.8142361111111 26.3128698224852  Z M 67.890625 26.2573964497041  C 68.5908564814815 26.9230769230769  68.9409722222222 27.7366863905325  68.9409722222222 28.698224852071  C 68.9409722222222 29.6597633136095  68.5908564814815 30.4795364891519  67.890625 31.1575443786982  C 67.1903935185185 31.8355522682446  66.34375 32.1745562130178  65.3506944444444 32.1745562130178  C 64.3576388888889 32.1745562130178  63.5109953703704 31.8355522682446  62.8107638888889 31.1575443786982  C 62.1105324074074 30.4795364891519  61.7604166666667 29.6597633136095  61.7604166666667 28.698224852071  C 61.7604166666667 27.7366863905325  62.1105324074074 26.9230769230769  62.8107638888889 26.2573964497041  C 63.5109953703704 25.5917159763314  64.3576388888889 25.258875739645  65.3506944444444 25.258875739645  C 66.34375 25.258875739645  67.1903935185185 25.5917159763314  67.890625 26.2573964497041  Z M 27.0607638888889 33.7832840236686  C 28.4994212962963 32.3902859960552  29.21875 30.7075936883629  29.21875 28.7352071005917  C 29.21875 26.7874753451677  28.4994212962963 25.1109467455621  27.0607638888889 23.7056213017752  C 25.6221064814815 22.3002958579882  23.8842592592593 21.5976331360947  21.8472222222222 21.5976331360947  C 19.8101851851852 21.5976331360947  18.072337962963 22.2941321499014  16.6336805555556 23.6871301775148  C 15.1950231481482 25.0801282051282  14.4756944444444 26.7628205128205  14.4756944444444 28.7352071005917  C 14.4756944444444 30.7075936883629  15.1950231481482 32.3902859960552  16.6336805555556 33.7832840236686  C 18.072337962963 35.1762820512821  19.8101851851852 35.8727810650888  21.8472222222222 35.8727810650888  C 23.8842592592593 35.8727810650888  25.6221064814815 35.1762820512821  27.0607638888889 33.7832840236686  Z M 71.0989583333333 33.7463017751479  C 72.5376157407407 32.3533037475345  73.2569444444444 30.6706114398422  73.2569444444444 28.698224852071  C 73.2569444444444 26.7258382642998  72.5376157407407 25.0431459566075  71.0989583333333 23.6501479289941  C 69.6603009259259 22.2571499013807  67.9224537037037 21.560650887574  65.8854166666667 21.560650887574  C 63.8738425925926 21.560650887574  62.1423611111111 22.2571499013807  60.6909722222222 23.6501479289941  C 59.2395833333333 25.0431459566075  58.5138888888889 26.7258382642998  58.5138888888889 28.698224852071  C 58.5138888888889 30.6706114398422  59.2332175925926 32.3533037475345  60.671875 33.7463017751479  C 62.1105324074074 35.1392998027613  63.8483796296296 35.8357988165681  65.8854166666667 35.8357988165681  C 67.9224537037037 35.8357988165681  69.6603009259259 35.1392998027613  71.0989583333333 33.7463017751479  Z M 29.3524305555556 21.4681952662722  C 31.427662037037 23.4775641025641  32.4652777777778 25.8999013806706  32.4652777777778 28.7352071005917  C 32.4652777777778 31.59516765286  31.427662037037 34.02983234714  29.3524305555556 36.0392011834319  C 27.2771990740741 38.0485700197239  24.775462962963 39.0532544378698  21.8472222222222 39.0532544378698  C 18.8935185185185 39.0532544378698  16.3790509259259 38.0424063116371  14.3038194444444 36.0207100591716  C 12.228587962963 33.9990138067061  11.1909722222222 31.5705128205128  11.1909722222222 28.7352071005917  C 11.1909722222222 25.8999013806706  12.2349537037037 23.4775641025641  14.3229166666667 21.4681952662722  C 16.4108796296296 19.4588264299803  18.9189814814815 18.4541420118343  21.8472222222222 18.4541420118343  C 24.775462962963 18.4541420118343  27.2771990740741 19.4588264299803  29.3524305555556 21.4681952662722  Z M 73.4288194444444 21.4312130177515  C 75.5040509259259 23.4405818540434  76.5416666666667 25.8629191321499  76.5416666666667 28.698224852071  C 76.5416666666667 31.5335305719921  75.5040509259259 33.9558678500986  73.4288194444444 35.9652366863905  C 71.353587962963 37.9746055226824  68.8391203703704 38.9792899408284  65.8854166666667 38.9792899408284  C 62.9571759259259 38.9792899408284  60.4554398148148 37.9746055226824  58.3802083333333 35.9652366863905  C 56.3049768518519 33.9558678500986  55.2673611111111 31.5335305719921  55.2673611111111 28.698224852071  C 55.2673611111111 25.8629191321499  56.3049768518519 23.4405818540434  58.3802083333333 21.4312130177515  C 60.4554398148148 19.4218441814596  62.9571759259259 18.4171597633136  65.8854166666667 18.4171597633136  C 68.8391203703704 18.4171597633136  71.353587962963 19.4218441814596  73.4288194444444 21.4312130177515  Z M 34.546875 40.883875739645  C 37.9971064814815 37.5431459566075  39.7222222222222 33.5182445759369  39.7222222222222 28.8091715976331  C 39.7222222222222 24.1000986193294  37.9971064814815 20.0751972386588  34.546875 16.7344674556213  C 31.0966435185185 13.3937376725838  26.9398148148148 11.7233727810651  22.0763888888889 11.7233727810651  C 18.8935185185185 11.7233727810651  15.9525462962963 12.4876725838264  13.2534722222222 14.0162721893491  C 10.5543981481482 15.5448717948718  8.41550925925926 17.6220414201183  6.83680555555556 20.2477810650888  C 5.25810185185185 22.8735207100592  4.46875 25.7273175542406  4.46875 28.8091715976331  C 4.46875 31.8910256410256  5.25810185185185 34.7448224852071  6.83680555555556 37.3705621301775  C 8.41550925925926 39.9963017751479  10.5543981481482 42.0734714003945  13.2534722222222 43.6020710059172  C 15.9525462962963 45.1306706114398  18.8935185185185 45.8949704142012  22.0763888888889 45.8949704142012  C 26.9398148148148 45.8949704142012  31.0966435185185 44.2246055226824  34.546875 40.883875739645  Z M 56.9479166666667 9.46745562130177  C 59.5706018518519 8.30867850098619  62.3333333333333 7.69230769230769  65.2361111111111 7.61834319526627  C 58.7685185185185 4.88165680473373  51.6898148148148 3.51331360946746  44 3.51331360946746  C 35.8773148148148 3.51331360946746  28.5821759259259 4.86932938856015  22.1145833333333 7.58136094674556  C 25.09375 7.58136094674556  27.9328703703704 8.14225838264299  30.6319444444444 9.26405325443787  C 33.3310185185185 10.3858481262327  35.6545138888889 11.8959566074951  37.6024305555556 13.7943786982249  C 39.5503472222222 15.6928007889546  41.103587962963 17.9487179487179  42.2621527777778 20.5621301775148  C 43.4207175925926 23.1755424063116  44 25.9245562130178  44 28.8091715976331  C 44 25.973865877712  44.5538194444444 23.2679980276134  45.6614583333333 20.6915680473373  C 46.7690972222222 18.1151380670611  48.271412037037 15.8900394477318  50.1684027777778 14.0162721893491  C 52.0653935185185 12.1425049309665  54.3252314814815 10.6262327416174  56.9479166666667 9.46745562130177  Z M 78.375 40.883875739645  C 81.8125 37.5431459566075  83.53125 33.5182445759369  83.53125 28.8091715976331  C 83.53125 24.1000986193294  81.8125 20.0751972386588  78.375 16.7344674556213  C 74.9375 13.3937376725838  70.7870370370371 11.7233727810651  65.9236111111111 11.7233727810651  C 61.0601851851852 11.7233727810651  56.9033564814815 13.3937376725838  53.453125 16.7344674556213  C 50.0028935185185 20.0751972386588  48.2777777777778 24.1000986193294  48.2777777777778 28.8091715976331  C 48.2777777777778 33.5182445759369  50.0028935185185 37.5431459566075  53.453125 40.883875739645  C 56.9033564814815 44.2246055226824  61.0601851851852 45.8949704142012  65.9236111111111 45.8949704142012  C 70.7870370370371 45.8949704142012  74.9375 44.2246055226824  78.375 40.883875739645  Z M 60.0798611111111 2.07100591715976  C 65.0960648148148 3.4516765285996  69.5266203703704 5.38708086785009  73.3715277777778 8  L 88 8  C 86.8796296296296 9.13461538461539  85.9247685185185 10.5461045364891  85.1354166666667 12.1116863905325  C 84.3460648148148 13.6772682445759  83.8368055555556 15.0887573964497  83.6076388888889 16.3461538461538  C 86.4085648148148 20.069033530572  87.8090277777778 24.2233727810651  87.8090277777778 28.8091715976331  C 87.8090277777778 32.655325443787  86.8287037037037 36.2056213017751  84.8680555555556 39.4600591715976  C 82.9074074074074 42.7144970414201  80.2465277777778 45.2847633136095  76.8854166666667 47.1708579881657  C 73.5243055555556 49.0569526627219  69.8703703703704 50  65.9236111111111 50  C 62.537037037037 50  59.3668981481482 49.3096646942801  56.4131944444444 47.9289940828402  C 53.4594907407407 46.5483234714004  50.9641203703704 44.637573964497  48.9270833333333 42.1967455621302  C 47.7303240740741 43.57741617357  46.087962962963 45.7840236686391  44 48.8165680473373  C 43.7199074074074 48.2741617357002  43.0387731481482 47.2571499013807  41.9565972222222 45.7655325443787  C 40.8744212962963 44.2739151873767  39.9259259259259 43.0719921104537  39.1111111111111 42.1597633136095  C 37.0740740740741 44.6005917159763  34.572337962963 46.5175049309665  31.6059027777778 47.9105029585799  C 28.6394675925926 49.3035009861933  25.462962962963 50  22.0763888888889 50  C 18.1296296296296 50  14.4756944444444 49.0569526627219  11.1145833333333 47.1708579881657  C 7.75347222222222 45.2847633136095  5.09259259259259 42.7144970414201  3.13194444444444 39.4600591715976  C 1.1712962962963 36.2056213017751  0.190972222222222 32.655325443787  0.190972222222222 28.8091715976331  C 0.190972222222222 24.2233727810651  1.59143518518519 20.069033530572  4.39236111111111 16.3461538461538  C 4.16319444444444 15.0887573964497  3.65393518518519 13.6772682445759  2.86458333333333 12.1116863905325  C 2.07523148148148 10.5461045364891  1.12037037037037 9.13461538461539  0 8  L 13.9409722222222 8  C 17.7349537037037 5.41173570019723  22.2546296296296 3.48249506903353  27.5 2.08949704142012  C 32.7453703703704 0.696499013806701  38.2453703703704 0  44 0  C 49.7037037037037 0  55.0636574074074 0.690335305719914  60.0798611111111 2.07100591715976  Z " fill-rule="nonzero" fill="#000080" stroke="none" fill-opacity="0.858823529411765" transform="matrix(1 0 0 1 701 3889 )" />
  </g>
</svg>