<?xml version="1.0" encoding="utf-8"?>
<svg version="1.1" xmlns:xlink="http://www.w3.org/1999/xlink" width="56px" height="50px" xmlns="http://www.w3.org/2000/svg">
  <g transform="matrix(1 0 0 1 -297 -4076 )">
    <path d="M 15.1545138888889 26.3128698224852  C 15.6001157407407 26.9908777120316  15.8229166666667 27.7983234714004  15.8229166666667 28.7352071005917  C 15.8229166666667 29.6967455621302  15.6001157407407 30.5165187376726  15.1545138888889 31.1945266272189  C 14.708912037037 31.8725345167653  14.1782407407407 32.2115384615385  13.5625 32.2115384615385  C 12.9305555555556 32.2115384615385  12.3917824074074 31.8725345167653  11.9461805555556 31.1945266272189  C 11.5005787037037 30.5165187376726  11.2777777777778 29.6967455621302  11.2777777777778 28.7352071005917  C 11.2777777777778 27.7983234714004  11.5005787037037 26.9908777120316  11.9461805555556 26.3128698224852  C 12.3917824074074 25.6348619329389  12.9305555555556 25.2958579881657  13.5625 25.2958579881657  C 14.1782407407407 25.2958579881657  14.708912037037 25.6348619329389  15.1545138888889 26.3128698224852  Z M 43.203125 26.2573964497041  C 43.6487268518519 26.9230769230769  43.8715277777778 27.7366863905325  43.8715277777778 28.698224852071  C 43.8715277777778 29.6597633136095  43.6487268518519 30.4795364891519  43.203125 31.1575443786982  C 42.7575231481481 31.8355522682446  42.21875 32.1745562130178  41.5868055555556 32.1745562130178  C 40.9548611111111 32.1745562130178  40.416087962963 31.8355522682446  39.9704861111111 31.1575443786982  C 39.5248842592593 30.4795364891519  39.3020833333333 29.6597633136095  39.3020833333333 28.698224852071  C 39.3020833333333 27.7366863905325  39.5248842592593 26.9230769230769  39.9704861111111 26.2573964497041  C 40.416087962963 25.5917159763314  40.9548611111111 25.258875739645  41.5868055555556 25.258875739645  C 42.21875 25.258875739645  42.7575231481481 25.5917159763314  43.203125 26.2573964497041  Z M 17.2204861111111 33.7832840236686  C 18.1359953703704 32.3902859960552  18.59375 30.7075936883629  18.59375 28.7352071005917  C 18.59375 26.7874753451677  18.1359953703704 25.1109467455621  17.2204861111111 23.7056213017752  C 16.3049768518519 22.3002958579882  15.1990740740741 21.5976331360947  13.9027777777778 21.5976331360947  C 12.6064814814815 21.5976331360947  11.5005787037037 22.2941321499014  10.5850694444444 23.6871301775148  C 9.66956018518519 25.0801282051282  9.21180555555556 26.7628205128205  9.21180555555556 28.7352071005917  C 9.21180555555556 30.7075936883629  9.66956018518519 32.3902859960552  10.5850694444444 33.7832840236686  C 11.5005787037037 35.1762820512821  12.6064814814815 35.8727810650888  13.9027777777778 35.8727810650888  C 15.1990740740741 35.8727810650888  16.3049768518519 35.1762820512821  17.2204861111111 33.7832840236686  Z M 45.2447916666667 33.7463017751479  C 46.1603009259259 32.3533037475345  46.6180555555556 30.6706114398422  46.6180555555556 28.698224852071  C 46.6180555555556 26.7258382642998  46.1603009259259 25.0431459566075  45.2447916666667 23.6501479289941  C 44.3292824074074 22.2571499013807  43.2233796296296 21.560650887574  41.9270833333333 21.560650887574  C 40.6469907407407 21.560650887574  39.5451388888889 22.2571499013807  38.6215277777778 23.6501479289941  C 37.6979166666667 25.0431459566075  37.2361111111111 26.7258382642998  37.2361111111111 28.698224852071  C 37.2361111111111 30.6706114398422  37.6938657407407 32.3533037475345  38.609375 33.7463017751479  C 39.5248842592593 35.1392998027613  40.630787037037 35.8357988165681  41.9270833333333 35.8357988165681  C 43.2233796296296 35.8357988165681  44.3292824074074 35.1392998027613  45.2447916666667 33.7463017751479  Z M 18.6788194444444 21.4681952662722  C 19.9994212962963 23.4775641025641  20.6597222222222 25.8999013806706  20.6597222222222 28.7352071005917  C 20.6597222222222 31.59516765286  19.9994212962963 34.02983234714  18.6788194444444 36.0392011834319  C 17.3582175925926 38.0485700197239  15.7662037037037 39.0532544378698  13.9027777777778 39.0532544378698  C 12.0231481481481 39.0532544378698  10.4230324074074 38.0424063116371  9.10243055555556 36.0207100591716  C 7.7818287037037 33.9990138067061  7.12152777777778 31.5705128205128  7.12152777777778 28.7352071005917  C 7.12152777777778 25.8999013806706  7.78587962962963 23.4775641025641  9.11458333333333 21.4681952662722  C 10.443287037037 19.4588264299803  12.0393518518519 18.4541420118343  13.9027777777778 18.4541420118343  C 15.7662037037037 18.4541420118343  17.3582175925926 19.4588264299803  18.6788194444444 21.4681952662722  Z M 46.7274305555556 21.4312130177515  C 48.0480324074074 23.4405818540434  48.7083333333333 25.8629191321499  48.7083333333333 28.698224852071  C 48.7083333333333 31.5335305719921  48.0480324074074 33.9558678500986  46.7274305555556 35.9652366863905  C 45.4068287037037 37.9746055226824  43.806712962963 38.9792899408284  41.9270833333333 38.9792899408284  C 40.0636574074074 38.9792899408284  38.4716435185185 37.9746055226824  37.1510416666667 35.9652366863905  C 35.8304398148148 33.9558678500986  35.1701388888889 31.5335305719921  35.1701388888889 28.698224852071  C 35.1701388888889 25.8629191321499  35.8304398148148 23.4405818540434  37.1510416666667 21.4312130177515  C 38.4716435185185 19.4218441814596  40.0636574074074 18.4171597633136  41.9270833333333 18.4171597633136  C 43.806712962963 18.4171597633136  45.4068287037037 19.4218441814596  46.7274305555556 21.4312130177515  Z M 21.984375 40.883875739645  C 24.1799768518519 37.5431459566075  25.2777777777778 33.5182445759369  25.2777777777778 28.8091715976331  C 25.2777777777778 24.1000986193294  24.1799768518519 20.0751972386588  21.984375 16.7344674556213  C 19.7887731481482 13.3937376725838  17.1435185185185 11.7233727810651  14.0486111111111 11.7233727810651  C 12.0231481481481 11.7233727810651  10.1516203703704 12.4876725838264  8.43402777777778 14.0162721893491  C 6.71643518518519 15.5448717948718  5.35532407407407 17.6220414201183  4.35069444444444 20.2477810650888  C 3.34606481481481 22.8735207100592  2.84375 25.7273175542406  2.84375 28.8091715976331  C 2.84375 31.8910256410256  3.34606481481481 34.7448224852071  4.35069444444444 37.3705621301775  C 5.35532407407407 39.9963017751479  6.71643518518519 42.0734714003945  8.43402777777778 43.6020710059172  C 10.1516203703704 45.1306706114398  12.0231481481481 45.8949704142012  14.0486111111111 45.8949704142012  C 17.1435185185185 45.8949704142012  19.7887731481482 44.2246055226824  21.984375 40.883875739645  Z M 36.2395833333333 9.46745562130177  C 37.9085648148148 8.30867850098619  39.6666666666667 7.69230769230769  41.5138888888889 7.61834319526627  C 37.3981481481481 4.88165680473373  32.8935185185185 3.51331360946746  28 3.51331360946746  C 22.8310185185185 3.51331360946746  18.1886574074074 4.86932938856015  14.0729166666667 7.58136094674556  C 15.96875 7.58136094674556  17.775462962963 8.14225838264299  19.4930555555556 9.26405325443787  C 21.2106481481482 10.3858481262327  22.6892361111111 11.8959566074951  23.9288194444444 13.7943786982249  C 25.1684027777778 15.6928007889546  26.1568287037037 17.9487179487179  26.8940972222222 20.5621301775148  C 27.6313657407407 23.1755424063116  28 25.9245562130178  28 28.8091715976331  C 28 25.973865877712  28.3524305555556 23.2679980276134  29.0572916666667 20.6915680473373  C 29.7621527777778 18.1151380670611  30.7181712962963 15.8900394477318  31.9253472222222 14.0162721893491  C 33.1325231481481 12.1425049309665  34.5706018518519 10.6262327416174  36.2395833333333 9.46745562130177  Z M 49.875 40.883875739645  C 52.0625 37.5431459566075  53.15625 33.5182445759369  53.15625 28.8091715976331  C 53.15625 24.1000986193294  52.0625 20.0751972386588  49.875 16.7344674556213  C 47.6875 13.3937376725838  45.0462962962963 11.7233727810651  41.9513888888889 11.7233727810651  C 38.8564814814815 11.7233727810651  36.2112268518519 13.3937376725838  34.015625 16.7344674556213  C 31.8200231481481 20.0751972386588  30.7222222222222 24.1000986193294  30.7222222222222 28.8091715976331  C 30.7222222222222 33.5182445759369  31.8200231481481 37.5431459566075  34.015625 40.883875739645  C 36.2112268518519 44.2246055226824  38.8564814814815 45.8949704142012  41.9513888888889 45.8949704142012  C 45.0462962962963 45.8949704142012  47.6875 44.2246055226824  49.875 40.883875739645  Z M 38.2326388888889 2.07100591715976  C 41.4247685185185 3.4516765285996  44.244212962963 5.38708086785009  46.6909722222222 7.87721893491125  L 56 7.87721893491125  C 55.287037037037 9.13461538461539  54.6793981481482 10.5461045364891  54.1770833333333 12.1116863905325  C 53.6747685185185 13.6772682445759  53.3506944444444 15.0887573964497  53.2048611111111 16.3461538461538  C 54.9872685185185 20.069033530572  55.8784722222222 24.2233727810651  55.8784722222222 28.8091715976331  C 55.8784722222222 32.655325443787  55.2546296296296 36.2056213017751  54.0069444444444 39.4600591715976  C 52.7592592592593 42.7144970414201  51.0659722222222 45.2847633136095  48.9270833333333 47.1708579881657  C 46.7881944444445 49.0569526627219  44.462962962963 50  41.9513888888889 50  C 39.7962962962963 50  37.7789351851852 49.3096646942801  35.8993055555556 47.9289940828402  C 34.0196759259259 46.5483234714004  32.431712962963 44.637573964497  31.1354166666667 42.1967455621302  C 30.3738425925926 43.57741617357  29.3287037037037 45.7840236686391  28 48.8165680473373  C 27.8217592592593 48.2741617357002  27.3883101851852 47.2571499013807  26.6996527777778 45.7655325443787  C 26.0109953703704 44.2739151873767  25.4074074074074 43.0719921104537  24.8888888888889 42.1597633136095  C 23.5925925925926 44.6005917159763  22.0005787037037 46.5175049309665  20.1128472222222 47.9105029585799  C 18.2251157407407 49.3035009861933  16.2037037037037 50  14.0486111111111 50  C 11.537037037037 50  9.21180555555556 49.0569526627219  7.07291666666667 47.1708579881657  C 4.93402777777778 45.2847633136095  3.24074074074074 42.7144970414201  1.99305555555556 39.4600591715976  C 0.74537037037037 36.2056213017751  0.121527777777778 32.655325443787  0.121527777777778 28.8091715976331  C 0.121527777777778 24.2233727810651  1.01273148148148 20.069033530572  2.79513888888889 16.3461538461538  C 2.64930555555556 15.0887573964497  2.32523148148148 13.6772682445759  1.82291666666667 12.1116863905325  C 1.32060185185185 10.5461045364891  0.712962962962963 9.13461538461539  0 7.87721893491125  L 8.87152777777778 7.87721893491125  C 11.2858796296296 5.41173570019723  14.162037037037 3.48249506903353  17.5 2.08949704142012  C 20.837962962963 0.696499013806701  24.337962962963 0  28 0  C 31.6296296296296 0  35.0405092592593 0.690335305719914  38.2326388888889 2.07100591715976  Z " fill-rule="nonzero" fill="#000080" stroke="none" fill-opacity="0.858823529411765" transform="matrix(1 0 0 1 297 4076 )" />
  </g>
</svg>