<?xml version="1.0" encoding="utf-8"?>
<svg version="1.1" xmlns:xlink="http://www.w3.org/1999/xlink" width="300px" height="157px" xmlns="http://www.w3.org/2000/svg">
  <defs>
    <mask fill="white" id="clip154">
      <path d="M 0 129.294117647059  L 0 27.7058823529412  C 0 12.1905882352941  13.2 0  30 0  L 30.9029126213593 0  L 270 0  C 286.8 0  300 12.1905882352941  300 27.7058823529412  L 300 129.294117647059  C 300 144.809411764706  286.8 157  270 157  L 30 157  C 13.2 157  0 144.809411764706  0 129.294117647059  Z " fill-rule="evenodd" />
    </mask>
  </defs>
  <g>
    <path d="M 0 129.294117647059  L 0 27.7058823529412  C 0 12.1905882352941  13.2 0  30 0  L 30.9029126213593 0  L 270 0  C 286.8 0  300 12.1905882352941  300 27.7058823529412  L 300 129.294117647059  C 300 144.809411764706  286.8 157  270 157  L 30 157  C 13.2 157  0 144.809411764706  0 129.294117647059  Z " fill-rule="nonzero" fill="#c39b4d" stroke="none" />
    <path d="M 0 129.294117647059  L 0 27.7058823529412  C 0 12.1905882352941  13.2 0  30 0  L 30.9029126213593 0  L 270 0  C 286.8 0  300 12.1905882352941  300 27.7058823529412  L 300 129.294117647059  C 300 144.809411764706  286.8 157  270 157  L 30 157  C 13.2 157  0 144.809411764706  0 129.294117647059  Z " stroke-width="2" stroke="#797979" fill="none" mask="url(#clip154)" />
  </g>
</svg>