<?xml version="1.0" encoding="utf-8"?>
<svg version="1.1" xmlns:xlink="http://www.w3.org/1999/xlink" width="218px" height="88px" xmlns="http://www.w3.org/2000/svg">
  <g transform="matrix(1 0 0 1 -41 -22 )">
    <path d="M 94.57666015625 56.3463541666667  C 95.10888671875 58.1223958333333  95.375 60.0416666666667  95.375 62.1041666666667  C 95.375 64.2048611111111  94.25732421875 65.9904513888889  92.02197265625 67.4609375  C 89.78662109375 68.9314236111111  87.1077473958333 69.6666666666667  83.9853515625 69  L 38.6396484375 69  C 35.5172526041667 69.6666666666667  32.83837890625 68.9314236111111  30.60302734375 67.4609375  C 28.36767578125 65.9904513888889  27.25 64.2048611111111  27.25 62.1041666666667  C 27.25 60.0416666666667  27.51611328125 58.1223958333333  28.04833984375 56.3463541666667  C 28.58056640625 54.5703125  29.4498697916667 52.8515625  30.65625 51.1901041666667  C 31.8626302083333 49.5286458333333  33.6722005208333 48.2204861111111  36.0849609375 47.265625  C 38.4977213541667 46.3107638888889  41.3717447916667 45.8333333333333  44.70703125 45.8333333333333  C 49.2486979166667 48.2777777777778  54.7838541666667 49.5  61.3125 49.5  C 67.8411458333333 49.5  73.3763020833333 48.2777777777778  77.91796875 45.8333333333333  C 81.2532552083333 45.8333333333333  84.1272786458333 46.3107638888889  86.5400390625 47.265625  C 88.9527994791667 48.2204861111111  90.7623697916667 49.5286458333333  91.96875 51.1901041666667  C 93.1751302083333 52.8515625  94.04443359375 54.5703125  94.57666015625 56.3463541666667  Z M 75.7890625 28.875  C 79.7630208333333 31.0138888888889  81.75 33.6111111111111  81.75 36.6666666666667  C 81.75 39.7222222222222  79.7630208333333 42.3194444444444  75.7890625 44.4583333333333  C 71.8151041666667 46.5972222222222  66.9895833333333 47.6666666666667  61.3125 47.6666666666667  C 55.6354166666667 47.6666666666667  50.8098958333333 46.5972222222222  46.8359375 44.4583333333333  C 42.8619791666667 42.3194444444444  40.875 39.7222222222222  40.875 36.6666666666667  C 40.875 33.6111111111111  42.8619791666667 31.0138888888889  46.8359375 28.875  C 50.8098958333333 26.7361111111111  55.6354166666667 25.6666666666667  61.3125 25.6666666666667  C 66.9895833333333 25.6666666666667  71.8151041666667 26.7361111111111  75.7890625 28.875  Z M 189.7919921875 59.1822916666667  C 190.4306640625 59.5260416666667  190.75 59.9652777777778  190.75 60.5  L 190.75 64.1666666666667  C 190.75 64.7013888888889  190.4306640625 65.140625  189.7919921875 65.484375  C 189.1533203125 65.828125  188.337239583333 66  187.34375 66  L 112.40625 66  C 111.412760416667 66  110.5966796875 65.828125  109.9580078125 65.484375  C 109.3193359375 65.140625  109 64.7013888888889  109 64.1666666666667  L 109 60.5  C 109 59.9652777777778  109.3193359375 59.5260416666667  109.9580078125 59.1822916666667  C 110.5966796875 58.8385416666667  111.412760416667 58.6666666666667  112.40625 58  L 187.34375 58  C 188.337239583333 58.6666666666667  189.1533203125 58.8385416666667  189.7919921875 59.1822916666667  Z M 148.9169921875 44.515625  C 149.5556640625 44.859375  149.875 45.2986111111111  149.875 45.8333333333333  L 149.875 49.5  C 149.875 50.0347222222222  149.5556640625 50.4739583333333  148.9169921875 50.8177083333333  C 148.2783203125 51.1614583333333  147.462239583333 51.3333333333333  146.46875 51  L 112.40625 51  C 111.412760416667 51.3333333333333  110.5966796875 51.1614583333333  109.9580078125 50.8177083333333  C 109.3193359375 50.4739583333333  109 50.0347222222222  109 49.5  L 109 45.8333333333333  C 109 45.2986111111111  109.3193359375 44.859375  109.9580078125 44.515625  C 110.5966796875 44.171875  111.412760416667 44  112.40625 44  L 146.46875 44  C 147.462239583333 44  148.2783203125 44.171875  148.9169921875 44.515625  Z M 189.7919921875 44.515625  C 190.4306640625 44.859375  190.75 45.2986111111111  190.75 45.8333333333333  L 190.75 49.5  C 190.75 50.0347222222222  190.4306640625 50.4739583333333  189.7919921875 50.8177083333333  C 189.1533203125 51.1614583333333  188.337239583333 51.3333333333333  187.34375 51  L 166.90625 51  C 165.912760416667 51.3333333333333  165.0966796875 51.1614583333333  164.4580078125 50.8177083333333  C 163.8193359375 50.4739583333333  163.5 50.0347222222222  163.5 49.5  L 163.5 45.8333333333333  C 163.5 45.2986111111111  163.8193359375 44.859375  164.4580078125 44.515625  C 165.0966796875 44.171875  165.912760416667 44  166.90625 44  L 187.34375 44  C 188.337239583333 44  189.1533203125 44.171875  189.7919921875 44.515625  Z M 189.7919921875 29.8489583333333  C 190.4306640625 30.1927083333333  190.75 30.6319444444444  190.75 31.1666666666667  L 190.75 34.8333333333333  C 190.75 35.3680555555556  190.4306640625 35.8072916666667  189.7919921875 36.1510416666667  C 189.1533203125 36.4947916666667  188.337239583333 36.6666666666667  187.34375 37  L 112.40625 37  C 111.412760416667 36.6666666666667  110.5966796875 36.4947916666667  109.9580078125 36.1510416666667  C 109.3193359375 35.8072916666667  109 35.3680555555556  109 34.8333333333333  L 109 31.1666666666667  C 109 30.6319444444444  109.3193359375 30.1927083333333  109.9580078125 29.8489583333333  C 110.5966796875 29.5052083333333  111.412760416667 29.3333333333333  112.40625 30  L 187.34375 30  C 188.337239583333 29.3333333333333  189.1533203125 29.5052083333333  189.7919921875 29.8489583333333  Z M 203.36376953125 80.1223958333333  C 204.037923177083 79.7595486111111  204.375 79.3298611111111  204 78.8333333333333  L 204 15  L 14 15  L 14 78.8333333333333  C 13.625 79.3298611111111  13.9620768229167 79.7595486111111  14.63623046875 80.1223958333333  C 15.3103841145833 80.4852430555556  16.1087239583333 80.6666666666667  17.03125 80  L 200.96875 80  C 201.891276041667 80.6666666666667  202.689615885417 80.4852430555556  203.36376953125 80.1223958333333  Z M 212.9970703125 2.69270833333334  C 216.332356770833 4.48784722222222  218 6.64583333333334  218 9.16666666666666  L 218 78.8333333333333  C 218 81.3541666666667  216.332356770833 83.5121527777778  212.9970703125 85.3072916666667  C 209.661783854167 87.1024305555556  205.65234375 88  200.96875 88  L 17.03125 88  C 12.34765625 88  8.33821614583333 87.1024305555556  5.0029296875 85.3072916666667  C 1.66764322916667 83.5121527777778  0 81.3541666666667  0 78.8333333333333  L 0 9.16666666666666  C 0 6.64583333333334  1.66764322916667 4.48784722222222  5.0029296875 2.69270833333334  C 8.33821614583333 0.897569444444436  12.34765625 0  17.03125 0  L 200.96875 0  C 205.65234375 0  209.661783854167 0.897569444444436  212.9970703125 2.69270833333334  Z " fill-rule="nonzero" fill="#000000" stroke="none" transform="matrix(1 0 0 1 41 22 )" />
  </g>
</svg>