<?xml version="1.0" encoding="utf-8"?>
<svg version="1.1" xmlns:xlink="http://www.w3.org/1999/xlink" width="235px" height="101px" xmlns="http://www.w3.org/2000/svg">
  <g transform="matrix(1 0 0 1 -39 -19 )">
    <path d="M 62.6666666666667 36.0714285714286  C 62.6666666666667 41.2942708333333  65.9713541666667 46.1037946428571  72.5807291666667 50.5  C 59.3619791666667 50.6878720238095  48.5503472222222 53.0926339285714  40.1458333333333 57  L 23.7447916666667 57  C 17.0538194444444 57.7142857142857  11.4236111111111 56.9534040178571  6.85416666666667 55.431640625  C 2.28472222222222 53.9098772321429  0 51.68359375  0 48.7527901785714  C 0 35.489025297619  5.05902777777778 28.8571428571429  15.1770833333333 28.8571428571429  C 15.6666666666667 28.8571428571429  17.44140625 29.2516741071429  20.5013020833333 30.0407366071429  C 23.5611979166667 30.8297991071429  27.5390625 31.6282552083333  32.4348958333333 32.4361049107143  C 37.3307291666667 33.2439546130952  42.1857638888889 33.6478794642857  47 33.6478794642857  C 52.4670138888889 33.6478794642857  57.8932291666667 33.2157738095238  63.2786458333333 32.3515625  C 62.8706597222222 33.7418154761905  62.6666666666667 34.9817708333333  62.6666666666667 36.0714285714286  Z M 203.23828125 80.5689174107143  C 203.523871527778 82.4664248511905  203.666666666667 84.4109002976191  203.666666666667 86.40234375  C 203.666666666667 90.9112723214286  200.688368055556 94.4714471726191  194.731770833333 97.0828683035714  C 188.775173611111 99.6942894345238  180.860243055556 101  170.986979166667 101  L 64.0130208333333 101  C 54.1397569444445 101  46.2248263888889 99.6942894345238  40.2682291666667 97.0828683035714  C 34.3116319444445 94.4714471726191  31.3333333333333 90.9112723214286  31.3333333333333 86.40234375  C 31.3333333333333 84.4109002976191  31.4761284722222 82.4664248511905  31.76171875 80.5689174107143  C 32.0473090277778 78.6714099702381  32.6184895833333 76.6236049107143  33.4752604166667 74.4255022321429  C 34.33203125 72.2273995535714  35.4131944444445 70.1889880952381  36.71875 68.3102678571429  C 38.0243055555556 66.4315476190476  39.7786458333333 64.5997953869047  41.9817708333333 62.8150111607143  C 44.1848958333333 61.0302269345238  46.7144097222222 59.5084635416667  49.5703125 58.2497209821429  C 52.4262152777778 56.9909784226191  55.9144965277778 55.9858630952381  60.03515625 55.234375  C 64.1558159722222 54.4828869047619  68.7048611111111 54.1071428571429  73.6822916666667 54.1071428571429  C 74.4982638888889 54.1071428571429  76.2526041666667 54.5110677083333  78.9453125 55.3189174107143  C 81.6380208333333 56.1267671130952  84.6163194444444 57.0285528273809  87.8802083333333 58.0242745535714  C 91.1440972222222 59.0199962797619  95.5095486111111 59.9217819940476  100.9765625 60.7296316964286  C 106.443576388889 61.5374813988095  111.951388888889 61.94140625  117.5 61.94140625  C 123.048611111111 61.94140625  128.556423611111 61.5374813988095  134.0234375 60.7296316964286  C 139.490451388889 59.9217819940476  143.855902777778 59.0199962797619  147.119791666667 58.0242745535714  C 150.383680555556 57.0285528273809  153.361979166667 56.1267671130952  156.0546875 55.3189174107143  C 158.747395833333 54.5110677083333  160.501736111111 54.1071428571429  161.317708333333 54.1071428571429  C 166.295138888889 54.1071428571429  170.844184027778 54.4828869047619  174.96484375 55.234375  C 179.085503472222 55.9858630952381  182.573784722222 56.9909784226191  185.4296875 58.2497209821429  C 188.285590277778 59.5084635416667  190.815104166667 61.0302269345238  193.018229166667 62.8150111607143  C 195.221354166667 64.5997953869047  196.975694444444 66.4315476190476  198.28125 68.3102678571429  C 199.586805555556 70.1889880952381  200.66796875 72.2273995535714  201.524739583333 74.4255022321429  C 202.381510416667 76.6236049107143  202.952690972222 78.6714099702381  203.23828125 80.5689174107143  Z M 69.1536458333333 4.22712053571429  C 75.2734375 7.04520089285714  78.3333333333333 10.4456845238095  78.3333333333333 14.4285714285714  C 78.3333333333333 18.4114583333333  75.2734375 21.8119419642857  69.1536458333333 24.6300223214286  C 63.0338541666667 27.4481026785714  55.6493055555556 28.8571428571429  47 28.8571428571429  C 38.3506944444445 28.8571428571429  30.9661458333333 27.4481026785714  24.8463541666667 24.6300223214286  C 18.7265625 21.8119419642857  15.6666666666667 18.4114583333333  15.6666666666667 14.4285714285714  C 15.6666666666667 10.4456845238095  18.7265625 7.04520089285714  24.8463541666667 4.22712053571429  C 30.9661458333333 1.40904017857143  38.3506944444445 0  47 0  C 55.6493055555556 0  63.0338541666667 1.40904017857143  69.1536458333333 4.22712053571429  Z M 150.73046875 20.7692522321429  C 159.91015625 24.9963727678571  164.5 30.0970982142857  164.5 36.0714285714286  C 164.5 42.0457589285714  159.91015625 47.146484375  150.73046875 51.3736049107143  C 141.55078125 55.6007254464286  130.473958333333 57.7142857142857  117.5 57.7142857142857  C 104.526041666667 57.7142857142857  93.44921875 55.6007254464286  84.26953125 51.3736049107143  C 75.08984375 47.146484375  70.5 42.0457589285714  70.5 36.0714285714286  C 70.5 30.0970982142857  75.08984375 24.9963727678571  84.26953125 20.7692522321429  C 93.44921875 16.5421316964286  104.526041666667 14.4285714285714  117.5 14.4285714285714  C 130.473958333333 14.4285714285714  141.55078125 16.5421316964286  150.73046875 20.7692522321429  Z M 219.822916666667 28.8571428571429  C 229.940972222222 28.8571428571429  235 35.489025297619  235 48.7527901785714  C 235 51.68359375  232.715277777778 53.9098772321429  228.145833333333 55.431640625  C 223.576388888889 56.9534040178571  217.946180555556 57.7142857142857  211.255208333333 57  L 194.854166666667 57  C 186.449652777778 53.0926339285714  175.638020833333 50.6878720238095  162.419270833333 50.5  C 169.028645833333 46.1037946428571  172.333333333333 41.2942708333333  172.333333333333 36.0714285714286  C 172.333333333333 34.9817708333333  172.129340277778 33.7418154761905  171.721354166667 32.3515625  C 177.106770833333 33.2157738095238  182.532986111111 33.6478794642857  188 33.6478794642857  C 192.814236111111 33.6478794642857  197.669270833333 33.2439546130952  202.565104166667 32.4361049107143  C 207.4609375 31.6282552083333  211.438802083333 30.8297991071429  214.498697916667 30.0407366071429  C 217.55859375 29.2516741071429  219.333333333333 28.8571428571429  219.822916666667 28.8571428571429  Z M 210.153645833333 4.22712053571429  C 216.2734375 7.04520089285714  219.333333333333 10.4456845238095  219.333333333333 14.4285714285714  C 219.333333333333 18.4114583333333  216.2734375 21.8119419642857  210.153645833333 24.6300223214286  C 204.033854166667 27.4481026785714  196.649305555556 28.8571428571429  188 28.8571428571429  C 179.350694444444 28.8571428571429  171.966145833333 27.4481026785714  165.846354166667 24.6300223214286  C 159.7265625 21.8119419642857  156.666666666667 18.4114583333333  156.666666666667 14.4285714285714  C 156.666666666667 10.4456845238095  159.7265625 7.04520089285714  165.846354166667 4.22712053571429  C 171.966145833333 1.40904017857143  179.350694444444 0  188 0  C 196.649305555556 0  204.033854166667 1.40904017857143  210.153645833333 4.22712053571429  Z " fill-rule="nonzero" fill="#000000" stroke="none" transform="matrix(1 0 0 1 39 19 )" />
  </g>
</svg>