<?xml version="1.0" encoding="utf-8"?>
<svg version="1.1" xmlns:xlink="http://www.w3.org/1999/xlink" width="26px" height="29px" xmlns="http://www.w3.org/2000/svg">
  <g transform="matrix(1 0 0 1 -942 -4506 )">
    <path d="M 19.3815104166667 17.6435546875  C 19.4379340277778 17.7001953125  19.4661458333333 17.7725694444444  19.4661458333333 17.8606770833333  L 19.4661458333333 19.9186197916667  C 19.4661458333333 20.5479600694444  19.2601996527778 21.1080729166667  18.8483072916667 21.5989583333333  C 18.4364149305556 22.08984375  17.9060329861111 22.4705946180556  17.2571614583333 22.7412109375  C 16.6082899305556 23.0118272569444  15.9424913194444 23.2163628472222  15.259765625 23.3548177083333  C 14.5770399305556 23.4932725694444  13.9140625 23.5625  13.2708333333333 23.5625  C 10.9574652777778 23.5625  9.02495659722222 22.6877170138889  7.47330729166667 20.9381510416667  C 5.92165798611111 19.1885850694444  5.14583333333333 17.0110677083333  5.14583333333333 14.4055989583333  C 5.14583333333333 11.8504774305556  5.91319444444444 9.71701388888889  7.44791666666667 8.00520833333333  C 8.98263888888889 6.29340277777778  10.8953993055556 5.4375  13.1861979166667 5.4375  C 13.5698784722222 5.4375  13.9958767361111 5.4658203125  14.4641927083333 5.5224609375  C 14.9325086805556 5.5791015625  15.4572482638889 5.6923828125  16.0384114583333 5.8623046875  C 16.6195746527778 6.0322265625  17.1414930555556 6.24620225694444  17.6041666666667 6.50423177083333  C 18.0668402777778 6.76226128472222  18.4561631944444 7.11783854166667  18.7721354166667 7.57096354166667  C 19.0881076388889 8.02408854166667  19.24609375 8.53385416666667  19.24609375 9.10026041666667  L 19.24609375 11.158203125  C 19.24609375 11.3595920138889  19.1558159722222 11.4602864583333  18.9752604166667 11.4602864583333  L 16.9778645833333 11.4602864583333  C 16.7973090277778 11.4602864583333  16.70703125 11.3595920138889  16.70703125 11.158203125  L 16.70703125 9.83658854166667  C 16.70703125 9.29535590277778  16.3374565972222 8.87055121527778  15.5983072916667 8.56217447916667  C 14.8591579861111 8.25379774305555  14.0833333333333 8.099609375  13.2708333333333 8.099609375  C 11.6909722222222 8.099609375  10.4016927083333 8.67545572916667  9.40299479166667 9.8271484375  C 8.404296875 10.9788411458333  7.90494791666667 12.4735243055556  7.90494791666667 14.3111979166667  C 7.90494791666667 16.2118055555556  8.42122395833333 17.7820095486111  9.45377604166667 19.0218098958333  C 10.486328125 20.2616102430556  11.8038194444444 20.8815104166667  13.40625 20.8815104166667  C 14.1736111111111 20.8815104166667  14.9522569444444 20.73046875  15.7421875 20.4283854166667  C 16.5321180555556 20.1263020833333  16.9270833333333 19.7109375  16.9270833333333 19.1822916666667  L 16.9270833333333 17.8606770833333  C 16.9270833333333 17.7725694444444  16.9524739583333 17.7001953125  17.0032552083333 17.6435546875  C 17.0540364583333 17.5869140625  17.11328125 17.55859375  17.1809895833333 17.55859375  L 19.1953125 17.55859375  C 19.2630208333333 17.55859375  19.3250868055556 17.5869140625  19.3815104166667 17.6435546875  Z M 17.2063802083333 3.37955729166667  C 15.869140625 2.73763020833333  14.4670138888889 2.41666666666667  13 2.41666666666667  C 11.5329861111111 2.41666666666667  10.130859375 2.73763020833333  8.79361979166667 3.37955729166667  C 7.45638020833333 4.021484375  6.30533854166667 4.88053385416667  5.34049479166667 5.95670572916667  C 4.37565104166667 7.03287760416667  3.60546875 8.31673177083333  3.02994791666667 9.80826822916667  C 2.45442708333333 11.2998046875  2.16666666666667 12.8637152777778  2.16666666666667 14.5  C 2.16666666666667 16.1362847222222  2.45442708333333 17.7001953125  3.02994791666667 19.1917317708333  C 3.60546875 20.6832682291667  4.37565104166667 21.9671223958333  5.34049479166667 23.0432942708333  C 6.30533854166667 24.1194661458333  7.45638020833333 24.978515625  8.79361979166667 25.6204427083333  C 10.130859375 26.2623697916667  11.5329861111111 26.5833333333333  13 26.5833333333333  C 14.4670138888889 26.5833333333333  15.869140625 26.2623697916667  17.2063802083333 25.6204427083333  C 18.5436197916667 24.978515625  19.6946614583333 24.1194661458333  20.6595052083333 23.0432942708333  C 21.6243489583333 21.9671223958333  22.39453125 20.6832682291667  22.9700520833333 19.1917317708333  C 23.5455729166667 17.7001953125  23.8333333333333 16.1362847222222  23.8333333333333 14.5  C 23.8333333333333 12.8637152777778  23.5455729166667 11.2998046875  22.9700520833333 9.80826822916667  C 22.39453125 8.31673177083333  21.6243489583333 7.03287760416667  20.6595052083333 5.95670572916667  C 19.6946614583333 4.88053385416667  18.5436197916667 4.021484375  17.2063802083333 3.37955729166667  Z M 24.2565104166667 7.2216796875  C 25.4188368055556 9.44325086805555  26 11.8693576388889  26 14.5  C 26 17.1306423611111  25.4188368055556 19.5567491319444  24.2565104166667 21.7783203125  C 23.0941840277778 23.9998914930556  21.5171440972222 25.7588975694444  19.525390625 27.0553385416667  C 17.5336371527778 28.3517795138889  15.3585069444444 29  13 29  C 10.6414930555556 29  8.46636284722222 28.3517795138889  6.474609375 27.0553385416667  C 4.48285590277778 25.7588975694444  2.90581597222222 23.9998914930556  1.74348958333333 21.7783203125  C 0.581163194444444 19.5567491319444  0 17.1306423611111  0 14.5  C 0 11.8693576388889  0.581163194444444 9.44325086805555  1.74348958333333 7.2216796875  C 2.90581597222222 5.00010850694444  4.48285590277778 3.24110243055555  6.474609375 1.94466145833333  C 8.46636284722222 0.648220486111109  10.6414930555556 0  13 0  C 15.3585069444444 0  17.5336371527778 0.648220486111109  19.525390625 1.94466145833333  C 21.5171440972222 3.24110243055555  23.0941840277778 5.00010850694444  24.2565104166667 7.2216796875  Z " fill-rule="nonzero" fill="#000000" stroke="none" transform="matrix(1 0 0 1 942 4506 )" />
  </g>
</svg>