<?xml version="1.0" encoding="utf-8"?>
<svg version="1.1" xmlns:xlink="http://www.w3.org/1999/xlink" width="18px" height="29px" xmlns="http://www.w3.org/2000/svg">
  <g transform="matrix(1 0 0 1 -164 -4294 )">
    <path d="M 13.41796875 17.6435546875  C 13.45703125 17.7001953125  13.4765625 17.7725694444444  13.4765625 17.8606770833333  L 13.4765625 19.9186197916667  C 13.4765625 20.5479600694444  13.333984375 21.1080729166667  13.048828125 21.5989583333333  C 12.763671875 22.08984375  12.396484375 22.4705946180556  11.947265625 22.7412109375  C 11.498046875 23.0118272569444  11.037109375 23.2163628472222  10.564453125 23.3548177083333  C 10.091796875 23.4932725694444  9.6328125 23.5625  9.1875 23.5625  C 7.5859375 23.5625  6.248046875 22.6877170138889  5.173828125 20.9381510416667  C 4.099609375 19.1885850694444  3.5625 17.0110677083333  3.5625 14.4055989583333  C 3.5625 11.8504774305556  4.09375 9.71701388888889  5.15625 8.00520833333333  C 6.21875 6.29340277777778  7.54296875 5.4375  9.12890625 5.4375  C 9.39453125 5.4375  9.689453125 5.4658203125  10.013671875 5.5224609375  C 10.337890625 5.5791015625  10.701171875 5.6923828125  11.103515625 5.8623046875  C 11.505859375 6.0322265625  11.8671875 6.24620225694444  12.1875 6.50423177083333  C 12.5078125 6.76226128472222  12.77734375 7.11783854166667  12.99609375 7.57096354166667  C 13.21484375 8.02408854166667  13.32421875 8.53385416666667  13.32421875 9.10026041666667  L 13.32421875 11.158203125  C 13.32421875 11.3595920138889  13.26171875 11.4602864583333  13.13671875 11.4602864583333  L 11.75390625 11.4602864583333  C 11.62890625 11.4602864583333  11.56640625 11.3595920138889  11.56640625 11.158203125  L 11.56640625 9.83658854166667  C 11.56640625 9.29535590277778  11.310546875 8.87055121527778  10.798828125 8.56217447916667  C 10.287109375 8.25379774305555  9.75 8.099609375  9.1875 8.099609375  C 8.09375 8.099609375  7.201171875 8.67545572916667  6.509765625 9.8271484375  C 5.818359375 10.9788411458333  5.47265625 12.4735243055556  5.47265625 14.3111979166667  C 5.47265625 16.2118055555556  5.830078125 17.7820095486111  6.544921875 19.0218098958333  C 7.259765625 20.2616102430556  8.171875 20.8815104166667  9.28125 20.8815104166667  C 9.8125 20.8815104166667  10.3515625 20.73046875  10.8984375 20.4283854166667  C 11.4453125 20.1263020833333  11.71875 19.7109375  11.71875 19.1822916666667  L 11.71875 17.8606770833333  C 11.71875 17.7725694444444  11.736328125 17.7001953125  11.771484375 17.6435546875  C 11.806640625 17.5869140625  11.84765625 17.55859375  11.89453125 17.55859375  L 13.2890625 17.55859375  C 13.3359375 17.55859375  13.37890625 17.5869140625  13.41796875 17.6435546875  Z M 11.912109375 3.37955729166667  C 10.986328125 2.73763020833333  10.015625 2.41666666666667  9 2.41666666666667  C 7.984375 2.41666666666667  7.013671875 2.73763020833333  6.087890625 3.37955729166667  C 5.162109375 4.021484375  4.365234375 4.88053385416667  3.697265625 5.95670572916667  C 3.029296875 7.03287760416667  2.49609375 8.31673177083333  2.09765625 9.80826822916667  C 1.69921875 11.2998046875  1.5 12.8637152777778  1.5 14.5  C 1.5 16.1362847222222  1.69921875 17.7001953125  2.09765625 19.1917317708333  C 2.49609375 20.6832682291667  3.029296875 21.9671223958333  3.697265625 23.0432942708333  C 4.365234375 24.1194661458333  5.162109375 24.978515625  6.087890625 25.6204427083333  C 7.013671875 26.2623697916667  7.984375 26.5833333333333  9 26.5833333333333  C 10.015625 26.5833333333333  10.986328125 26.2623697916667  11.912109375 25.6204427083333  C 12.837890625 24.978515625  13.634765625 24.1194661458333  14.302734375 23.0432942708333  C 14.970703125 21.9671223958333  15.50390625 20.6832682291667  15.90234375 19.1917317708333  C 16.30078125 17.7001953125  16.5 16.1362847222222  16.5 14.5  C 16.5 12.8637152777778  16.30078125 11.2998046875  15.90234375 9.80826822916667  C 15.50390625 8.31673177083333  14.970703125 7.03287760416667  14.302734375 5.95670572916667  C 13.634765625 4.88053385416667  12.837890625 4.021484375  11.912109375 3.37955729166667  Z M 16.79296875 7.2216796875  C 17.59765625 9.44325086805555  18 11.8693576388889  18 14.5  C 18 17.1306423611111  17.59765625 19.5567491319444  16.79296875 21.7783203125  C 15.98828125 23.9998914930556  14.896484375 25.7588975694444  13.517578125 27.0553385416667  C 12.138671875 28.3517795138889  10.6328125 29  9 29  C 7.3671875 29  5.861328125 28.3517795138889  4.482421875 27.0553385416667  C 3.103515625 25.7588975694444  2.01171875 23.9998914930556  1.20703125 21.7783203125  C 0.40234375 19.5567491319444  0 17.1306423611111  0 14.5  C 0 11.8693576388889  0.40234375 9.44325086805555  1.20703125 7.2216796875  C 2.01171875 5.00010850694444  3.103515625 3.24110243055555  4.482421875 1.94466145833333  C 5.861328125 0.648220486111109  7.3671875 0  9 0  C 10.6328125 0  12.138671875 0.648220486111109  13.517578125 1.94466145833333  C 14.896484375 3.24110243055555  15.98828125 5.00010850694444  16.79296875 7.2216796875  Z " fill-rule="nonzero" fill="#000000" stroke="none" transform="matrix(1 0 0 1 164 4294 )" />
  </g>
</svg>