<?xml version="1.0" encoding="utf-8"?>
<svg version="1.1" xmlns:xlink="http://www.w3.org/1999/xlink" width="21px" height="29px" xmlns="http://www.w3.org/2000/svg">
  <g transform="matrix(1 0 0 1 -453 -4178 )">
    <path d="M 15.654296875 17.6435546875  C 15.6998697916667 17.7001953125  15.72265625 17.7725694444444  15.72265625 17.8606770833333  L 15.72265625 19.9186197916667  C 15.72265625 20.5479600694444  15.5563151041667 21.1080729166667  15.2236328125 21.5989583333333  C 14.8909505208333 22.08984375  14.4625651041667 22.4705946180556  13.9384765625 22.7412109375  C 13.4143880208333 23.0118272569444  12.8766276041667 23.2163628472222  12.3251953125 23.3548177083333  C 11.7737630208333 23.4932725694444  11.23828125 23.5625  10.71875 23.5625  C 8.85026041666667 23.5625  7.28938802083333 22.6877170138889  6.0361328125 20.9381510416667  C 4.78287760416667 19.1885850694444  4.15625 17.0110677083333  4.15625 14.4055989583333  C 4.15625 11.8504774305556  4.77604166666667 9.71701388888889  6.015625 8.00520833333333  C 7.25520833333333 6.29340277777778  8.80013020833333 5.4375  10.650390625 5.4375  C 10.9602864583333 5.4375  11.3043619791667 5.4658203125  11.6826171875 5.5224609375  C 12.0608723958333 5.5791015625  12.4847005208333 5.6923828125  12.9541015625 5.8623046875  C 13.4235026041667 6.0322265625  13.8450520833333 6.24620225694444  14.21875 6.50423177083333  C 14.5924479166667 6.76226128472222  14.9069010416667 7.11783854166667  15.162109375 7.57096354166667  C 15.4173177083333 8.02408854166667  15.544921875 8.53385416666667  15.544921875 9.10026041666667  L 15.544921875 11.158203125  C 15.544921875 11.3595920138889  15.4720052083333 11.4602864583333  15.326171875 11.4602864583333  L 13.712890625 11.4602864583333  C 13.5670572916667 11.4602864583333  13.494140625 11.3595920138889  13.494140625 11.158203125  L 13.494140625 9.83658854166667  C 13.494140625 9.29535590277778  13.1956380208333 8.87055121527778  12.5986328125 8.56217447916667  C 12.0016276041667 8.25379774305555  11.375 8.099609375  10.71875 8.099609375  C 9.44270833333333 8.099609375  8.4013671875 8.67545572916667  7.5947265625 9.8271484375  C 6.7880859375 10.9788411458333  6.384765625 12.4735243055556  6.384765625 14.3111979166667  C 6.384765625 16.2118055555556  6.8017578125 17.7820095486111  7.6357421875 19.0218098958333  C 8.4697265625 20.2616102430556  9.53385416666667 20.8815104166667  10.828125 20.8815104166667  C 11.4479166666667 20.8815104166667  12.0768229166667 20.73046875  12.71484375 20.4283854166667  C 13.3528645833333 20.1263020833333  13.671875 19.7109375  13.671875 19.1822916666667  L 13.671875 17.8606770833333  C 13.671875 17.7725694444444  13.6923828125 17.7001953125  13.7333984375 17.6435546875  C 13.7744140625 17.5869140625  13.822265625 17.55859375  13.876953125 17.55859375  L 15.50390625 17.55859375  C 15.55859375 17.55859375  15.6087239583333 17.5869140625  15.654296875 17.6435546875  Z M 13.8974609375 3.37955729166667  C 12.8173828125 2.73763020833333  11.6848958333333 2.41666666666667  10.5 2.41666666666667  C 9.31510416666667 2.41666666666667  8.1826171875 2.73763020833333  7.1025390625 3.37955729166667  C 6.0224609375 4.021484375  5.0927734375 4.88053385416667  4.3134765625 5.95670572916667  C 3.5341796875 7.03287760416667  2.912109375 8.31673177083333  2.447265625 9.80826822916667  C 1.982421875 11.2998046875  1.75 12.8637152777778  1.75 14.5  C 1.75 16.1362847222222  1.982421875 17.7001953125  2.447265625 19.1917317708333  C 2.912109375 20.6832682291667  3.5341796875 21.9671223958333  4.3134765625 23.0432942708333  C 5.0927734375 24.1194661458333  6.0224609375 24.978515625  7.1025390625 25.6204427083333  C 8.1826171875 26.2623697916667  9.31510416666667 26.5833333333333  10.5 26.5833333333333  C 11.6848958333333 26.5833333333333  12.8173828125 26.2623697916667  13.8974609375 25.6204427083333  C 14.9775390625 24.978515625  15.9072265625 24.1194661458333  16.6865234375 23.0432942708333  C 17.4658203125 21.9671223958333  18.087890625 20.6832682291667  18.552734375 19.1917317708333  C 19.017578125 17.7001953125  19.25 16.1362847222222  19.25 14.5  C 19.25 12.8637152777778  19.017578125 11.2998046875  18.552734375 9.80826822916667  C 18.087890625 8.31673177083333  17.4658203125 7.03287760416667  16.6865234375 5.95670572916667  C 15.9072265625 4.88053385416667  14.9775390625 4.021484375  13.8974609375 3.37955729166667  Z M 19.591796875 7.2216796875  C 20.5305989583333 9.44325086805555  21 11.8693576388889  21 14.5  C 21 17.1306423611111  20.5305989583333 19.5567491319444  19.591796875 21.7783203125  C 18.6529947916667 23.9998914930556  17.3792317708333 25.7588975694444  15.7705078125 27.0553385416667  C 14.1617838541667 28.3517795138889  12.4049479166667 29  10.5 29  C 8.59505208333333 29  6.83821614583333 28.3517795138889  5.2294921875 27.0553385416667  C 3.62076822916667 25.7588975694444  2.34700520833333 23.9998914930556  1.408203125 21.7783203125  C 0.469401041666667 19.5567491319444  0 17.1306423611111  0 14.5  C 0 11.8693576388889  0.469401041666667 9.44325086805555  1.408203125 7.2216796875  C 2.34700520833333 5.00010850694444  3.62076822916667 3.24110243055555  5.2294921875 1.94466145833333  C 6.83821614583333 0.648220486111109  8.59505208333333 0  10.5 0  C 12.4049479166667 0  14.1617838541667 0.648220486111109  15.7705078125 1.94466145833333  C 17.3792317708333 3.24110243055555  18.6529947916667 5.00010850694444  19.591796875 7.2216796875  Z " fill-rule="nonzero" fill="#000000" stroke="none" transform="matrix(1 0 0 1 453 4178 )" />
  </g>
</svg>